<?xml version="1.0" encoding="UTF-8" standalone="no"?>
<svg
   xmlns:dc="http://purl.org/dc/elements/1.1/"
   xmlns:cc="http://creativecommons.org/ns#"
   xmlns:rdf="http://www.w3.org/1999/02/22-rdf-syntax-ns#"
   xmlns:svg="http://www.w3.org/2000/svg"
   xmlns="http://www.w3.org/2000/svg"
   xmlns:sodipodi="http://sodipodi.sourceforge.net/DTD/sodipodi-0.dtd"
   xmlns:inkscape="http://www.inkscape.org/namespaces/inkscape"
   version="1.1"
   x="0px"
   y="0px"
   viewBox="0 0 198.378 153.19999"
   xml:space="preserve"
   id="svg18962"
   sodipodi:docname="zju_vertical.svg"
   inkscape:version="1.0.2 (e86c870879, 2021-01-15)"
   width="198.37801"
   height="153.2"><metadata
   id="metadata18968"><rdf:RDF><cc:Work
       rdf:about=""><dc:format>image/svg+xml</dc:format><dc:type
         rdf:resource="http://purl.org/dc/dcmitype/StillImage" /><dc:title></dc:title></cc:Work></rdf:RDF></metadata><defs
   id="defs18966">
	
	
	
	
	
	
	
	
	
	
	
	
	
	
	
	
	
	
	
	
	
	
	
	
	
	
	
	
		
	
		
	
	
		
	
		
	
		
	
		
	
	
	
	
	
	
	
	
	
	
	
	
	
	
	
	
	
	
	
	
	
	
	
	
	
	
	
	
	
	
	
	
	
	
	
	
	
	
	
	
	
	
	
	
	
	
	
	
	
	
	
	
	
	
	
	
	
	
	
	
	
	
	
	
	
	
	
	
	
	
	
	
	
	
	
	
	
	
	
	
	
	
	
	
	
	
	
	
	
	
	
	
	
	
	
	
	
	
	
	
	
	
	
	
	
	
	
	
	
	
	
	
	
	
	
	
	
	
	
	
	
	
	
	
	
	
	
	
	
	
	
	
	
	
	
	
	
	
	
	
	
	
	
	
	
	
	
	
	
	
	
	
	
	
	
	
	
	
	
	
	
	
	
	
	
	
	
	
	
	
	
	
	
	
	
	
	
	
	
	
	
	
	
	
	
	
	
	
	
	
	
	
	
	
	
	
	
	
	
	
	
	
	
	
	
	
	
	
	
	
	
	
	
	
	
	
	
	
	
	
	
	
	
	
	
	
	
	
	
	
	
	
	
	
	
	
	
	
	
	
	
	
	
	
	
	
	
	
	
	
	
	
	
	
	
	
	
	
	
	
	
	
	
	
	
	
	
	
	
	
	
	
	
	
	
	
	
	
	
	
	
	
	
	
	
	
	
	
	
	
	
	
	
	
	
	
	
	
	
	
	
	
	
	
	
	
	
	
	
	
	
	
	
	
	
	
	
	
	
	
	
	
	
	
	
	
	
	
	
	
	
	
	
	
	
	
	
</defs><sodipodi:namedview
   pagecolor="#ffffff"
   bordercolor="#666666"
   borderopacity="1"
   objecttolerance="10"
   gridtolerance="10"
   guidetolerance="10"
   inkscape:pageopacity="0"
   inkscape:pageshadow="2"
   inkscape:window-width="2560"
   inkscape:window-height="1403"
   id="namedview18964"
   showgrid="false"
   inkscape:zoom="0.09791956"
   inkscape:cx="-3365.0806"
   inkscape:cy="1079.3388"
   inkscape:window-x="0"
   inkscape:window-y="0"
   inkscape:window-maximized="1"
   inkscape:current-layer="svg18962"
   inkscape:document-rotation="0" />
<style
   type="text/css"
   id="style2">
	.st0{fill:#FFFFFF;}
	.st1{fill:#DDDEDE;}
	.st2{fill:#003F89;}
	.st3{fill:none;stroke:#FFFFFF;stroke-miterlimit:10;}
	.st4{fill:none;stroke:#FFFFFF;stroke-width:0.5;stroke-miterlimit:10;}
	.st5{fill:none;stroke:#FFFFFF;stroke-width:0.2004;stroke-miterlimit:10;}
	.st6{fill:#595857;}
	.st7{fill:none;stroke:#C9CACA;stroke-width:0.5;stroke-miterlimit:10;}
	.st8{fill-rule:evenodd;clip-rule:evenodd;fill:#003F89;}
	.st9{fill:none;stroke:#E4007F;stroke-width:0.5;stroke-miterlimit:10;}
	.st10{fill:none;stroke:#E4007F;stroke-width:0.5;stroke-miterlimit:10;stroke-dasharray:1.5927,1.5927;}
	.st11{fill:none;stroke:#E4007F;stroke-width:0.5;stroke-miterlimit:10;stroke-dasharray:1.988,1.988;}
	.st12{fill:none;stroke:#E4007F;stroke-width:0.5;stroke-miterlimit:10;stroke-dasharray:1.5928,1.5928;}
	.st13{fill:#E4007F;}
	.st14{fill:none;stroke:#E4007F;stroke-width:0.5;stroke-miterlimit:10;stroke-dasharray:2,2;}
	.st15{fill:#B02025;}
	.st16{fill-rule:evenodd;clip-rule:evenodd;fill:#B02025;}
	.st17{fill:#FFFFFF;stroke:#000000;stroke-width:0.2835;stroke-miterlimit:10;}
	.st18{fill-rule:evenodd;clip-rule:evenodd;fill:#FFFFFF;}
	.st19{fill-rule:evenodd;clip-rule:evenodd;}
	.st20{fill:#B2B2B3;}
	.st21{clip-path:url(#XMLID_00000124859071278452239810000007972457623544496520_);fill:none;stroke:#B2B2B3;stroke-width:0.4652;}
	.st22{clip-path:url(#XMLID_00000022521252532237387550000006304300902153060770_);fill:none;stroke:#B2B2B3;stroke-width:0.4652;}
	.st23{clip-path:url(#XMLID_00000045607340759975488880000016061449790461789073_);fill:none;stroke:#B2B2B3;stroke-width:0.4652;}
	.st24{fill:none;stroke:#B2B2B3;stroke-width:0.2889;}
	.st25{fill:none;stroke:#E4007F;stroke-width:0.5;}
	.st26{clip-path:url(#XMLID_00000124845341951549191850000002001509021997736093_);fill:none;stroke:#B2B2B3;stroke-width:0.303;}
	.st27{clip-path:url(#XMLID_00000043426689549231852110000010385240072871093661_);fill:none;stroke:#B2B2B3;stroke-width:0.303;}
	.st28{clip-path:url(#XMLID_00000162343759901595977690000005994101244011084421_);fill:none;stroke:#B2B2B3;stroke-width:0.303;}
	.st29{fill:none;stroke:#B2B2B3;stroke-width:0.1882;}
	.st30{opacity:0.7;fill:#FFFFFF;}
	.st31{fill:none;stroke:#B02025;stroke-miterlimit:10;}
	.st32{fill:#EFEFEF;}
	.st33{clip-path:url(#SVGID_00000039822183673782394030000006693573546692312731_);}
	.st34{fill:#CD151D;}
	.st35{fill:#727171;}
	.st36{fill-rule:evenodd;clip-rule:evenodd;fill:none;stroke:#727171;stroke-width:0.4855;stroke-miterlimit:10;}
	.st37{fill-rule:evenodd;clip-rule:evenodd;fill:none;stroke:#B02025;stroke-width:0.4753;stroke-miterlimit:10;}
	.st38{fill:none;stroke:#B02025;stroke-width:0.4753;stroke-miterlimit:10;}
	.st39{fill:none;stroke:#E4007F;stroke-width:0.5;stroke-miterlimit:10;stroke-dasharray:1.9891,1.9891;}
	.st40{fill:none;stroke:#E4007F;stroke-width:0.5;stroke-miterlimit:10;stroke-dasharray:2.0045,2.0045;}
	.st41{fill:none;stroke:#E4007F;stroke-width:0.5;stroke-miterlimit:10;stroke-dasharray:1.9933,1.9933;}
	.st42{fill:none;stroke:#E4007F;stroke-width:0.5;stroke-miterlimit:10;stroke-dasharray:1.9889,1.9889;}
	.st43{fill:none;stroke:#E4007F;stroke-width:0.5;stroke-miterlimit:10;stroke-dasharray:1.9903,1.9903;}
	.st44{fill:#FFFFFF;stroke:#000000;stroke-width:0.2176;stroke-miterlimit:10;}
	.st45{fill-rule:evenodd;clip-rule:evenodd;fill:none;stroke:#E4007F;stroke-width:0.5;stroke-miterlimit:10;}
	.st46{fill:none;stroke:#E4007F;stroke-width:0.5;stroke-miterlimit:10;stroke-dasharray:1.9912,1.9912;}
	.st47{fill:none;stroke:#E4007F;stroke-width:0.5;stroke-miterlimit:10;stroke-dasharray:2.0217,2.0217;}
	.st48{clip-path:url(#XMLID_00000013187068658361299290000012633922755137156789_);fill:none;stroke:#B2B2B3;stroke-width:0.2769;}
	.st49{clip-path:url(#XMLID_00000075845235336269191670000009758558369107771322_);fill:none;stroke:#B2B2B3;stroke-width:0.2769;}
	.st50{clip-path:url(#XMLID_00000041280951724302073460000002362311204658004148_);fill:none;stroke:#B2B2B3;stroke-width:0.2769;}
	.st51{fill:none;stroke:#B2B2B3;stroke-width:0.172;}
	.st52{fill:#FFFFFF;stroke:#000000;stroke-width:0.2532;stroke-miterlimit:10;}
</style>
<g
   id="画板的参考线">
</g>

<g
   id="g2240"
   transform="translate(-97.958552,-77.8138)"><g
     id="g17967"
     transform="translate(1990.2323,3027.8538)">
		<path
   class="st2"
   d="m -1793.76,-2950.04 c 21.97,0 39.88,17.92 39.88,39.88 0,21.96 -17.92,39.88 -39.88,39.88 -21.96,0 -39.88,-17.92 -39.88,-39.88 0,-21.97 17.92,-39.88 39.88,-39.88 m 0,1.59 c -21.09,0 -38.29,17.2 -38.29,38.29 0,21.09 17.2,38.29 38.29,38.29 21.09,0 38.29,-17.2 38.29,-38.29 0,-21.09 -17.2,-38.29 -38.29,-38.29"
   id="path17889" />
		<path
   class="st2"
   d="m -1807.76,-2893.16 c -2.5,-2.07 -4.54,-4.66 -5.93,-7.62 -1.35,-2.85 -2.1,-6.02 -2.1,-9.37 0,-12.14 9.9,-22.04 22.04,-22.04 12.14,0 22.04,9.9 22.04,22.04 0,3.35 -0.76,6.53 -2.1,9.37 -1.4,2.96 -3.44,5.56 -5.93,7.62 l -0.5,-0.61 c 2.41,-1.99 4.37,-4.5 5.72,-7.35 1.29,-2.74 2.02,-5.81 2.02,-9.04 0,-11.7 -9.54,-21.25 -21.25,-21.25 -11.7,0 -21.25,9.54 -21.25,21.25 0,3.23 0.73,6.29 2.02,9.04 1.35,2.85 3.31,5.36 5.72,7.35 z"
   id="path17891" />
		<polygon
   class="st8"
   points="-1820.55,-2899.54 -1821.38,-2899.25 -1828.27,-2900.3 -1827.09,-2897.14 -1827.91,-2896.85 -1829.41,-2900.88 -1828.59,-2901.17 -1821.69,-2900.12 -1822.75,-2902.95 -1821.93,-2903.23 "
   id="polygon17893" />
		<polygon
   class="st8"
   points="-1822.46,-2893.82 -1823.48,-2895.82 -1826.72,-2894.15 -1827.14,-2894.96 -1820.21,-2898.52 -1819.79,-2897.72 -1822.71,-2896.22 -1821.69,-2894.22 -1818.77,-2895.72 -1818.35,-2894.91 -1825.28,-2891.35 -1825.7,-2892.15 "
   id="polygon17895" />
		<polygon
   class="st8"
   points="-1817.96,-2894.43 -1815.61,-2891.16 -1816.34,-2890.71 -1818.12,-2893.21 -1820.14,-2891.95 -1818.5,-2889.66 -1819.22,-2889.22 -1820.86,-2891.51 -1823.18,-2890.07 -1821.27,-2887.4 -1822,-2886.96 -1824.46,-2890.4 "
   id="polygon17897" />
		<polygon
   class="st8"
   points="-1812.51,-2888.12 -1811.69,-2887.43 -1816.47,-2881.55 -1817.29,-2882.25 "
   id="polygon17899" />
		<path
   class="st8"
   d="m -1812.76,-2878.96 0.98,-2.08 -1.19,-0.86 -1.77,1.72 -0.81,-0.62 5.61,-5.54 1.12,0.69 -2.99,7.24 z m 1.43,-3.1 1.17,-2.69 -0.11,-0.09 -2.02,2.06 z"
   id="path17901" />
		<polygon
   class="st8"
   points="-1806.36,-2884.58 -1806.79,-2879.44 -1804.5,-2883.68 -1803.65,-2883.33 -1807.14,-2876.25 -1808.16,-2876.72 -1807.57,-2882.12 -1809.78,-2877.58 -1810.79,-2878.04 -1807.28,-2885 "
   id="polygon17903" />
		<path
   class="st8"
   d="m -1801.91,-2874.68 -0.65,-0.21 0.06,-0.61 c -0.15,0.13 -0.35,0.22 -0.61,0.25 -0.25,0.04 -0.51,0.02 -0.76,-0.07 -0.54,-0.17 -0.94,-0.6 -1.2,-1.27 -0.26,-0.67 -0.21,-1.6 0.15,-2.77 0.4,-1.29 0.89,-2.18 1.46,-2.69 0.58,-0.5 1.46,-0.78 2.24,-0.53 0.84,0.27 1.38,1.3 1.14,2.72 l -1,-0.08 c 0.17,-0.61 0.08,-1.56 -0.51,-1.76 -0.49,-0.16 -1.02,-0.01 -1.37,0.38 -0.34,0.38 -0.68,1.11 -1.01,2.18 -0.31,1.01 -0.4,1.75 -0.26,2.22 0.14,0.47 0.38,0.75 0.71,0.86 0.33,0.11 0.64,0.06 0.91,-0.13 0.27,-0.19 0.49,-0.57 0.66,-1.12 l 0.14,-0.45 -1.2,-0.39 0.24,-0.78 1.96,0.64 z"
   id="path17905" />
		<path
   class="st8"
   d="m -1791.54,-2876.4 c -0.02,0.7 -0.21,1.25 -0.56,1.65 -0.35,0.39 -0.89,0.58 -1.63,0.55 -0.73,-0.02 -1.26,-0.25 -1.59,-0.67 -0.32,-0.42 -0.47,-0.98 -0.45,-1.69 l 0.17,-5.31 0.94,0.04 -0.17,5.31 c -0.02,0.5 0.08,0.87 0.29,1.11 0.21,0.24 0.49,0.37 0.84,0.39 0.35,0.01 0.64,-0.1 0.86,-0.32 0.22,-0.23 0.35,-0.59 0.36,-1.08 l 0.17,-5.31 0.93,0.03 z"
   id="path17907" />
		<polygon
   class="st8"
   points="-1789.72,-2882.08 -1787.55,-2878.53 -1787.95,-2882.35 -1787.12,-2882.49 -1786.22,-2874.99 -1787.06,-2874.86 -1789.69,-2879.93 -1789.29,-2874.49 -1790.28,-2874.34 -1790.86,-2881.97 "
   id="polygon17909" />
		<polygon
   class="st8"
   points="-1786.38,-2882.71 -1785.41,-2883.01 -1783.37,-2875.78 -1784.35,-2875.49 "
   id="polygon17911" />
		<polygon
   class="st8"
   points="-1780.82,-2879.03 -1781.64,-2884.54 -1780.73,-2884.94 -1779.5,-2876.96 -1780.46,-2876.49 -1784.69,-2883.25 -1783.76,-2883.65 "
   id="polygon17913" />
		<polygon
   class="st8"
   points="-1780.34,-2885.15 -1776.95,-2886.98 -1776.52,-2886.24 -1779.1,-2884.84 -1777.9,-2882.78 -1775.52,-2884.06 -1775.09,-2883.32 -1777.47,-2882.04 -1776.08,-2879.66 -1773.33,-2881.16 -1772.89,-2880.41 -1776.46,-2878.49 "
   id="polygon17915" />
		<path
   class="st8"
   d="m -1768.84,-2883.26 -0.78,0.67 -2.76,-2.29 -0.71,0.65 1.87,2.54 -0.79,0.82 -4.57,-6.42 1.46,-1.04 c 0.47,-0.33 1.08,-0.57 1.63,-0.51 1.42,0.17 2.03,1.13 1.97,2.24 -0.02,0.35 -0.04,0.7 -0.18,1.05 z m -4.92,-4.52 c -0.58,-0.16 -1.04,0.29 -1.46,0.61 l 1.52,2.01 c 0.46,-0.33 0.68,-0.41 1.03,-1.01 0.16,-0.73 -0.17,-1.36 -1.09,-1.61"
   id="path17917" />
		<path
   class="st8"
   d="m -1766.37,-2889.46 c 1.59,0.96 1.22,3.67 -0.87,3.99 -0.56,0.08 -1.23,-0.09 -1.51,-0.27 l 0.36,-0.81 c 0.35,0.07 0.69,0.2 1.02,0.14 1.36,-0.26 1.3,-1.67 0.51,-2.25 -0.28,-0.21 -0.67,-0.23 -1,-0.19 -0.91,0.1 -1.5,0.78 -2.52,0.85 -1.11,0.07 -1.89,-0.61 -2.07,-1.7 -0.1,-0.57 0.04,-1.13 0.33,-1.58 0.59,-0.92 1.84,-1.05 2.75,-0.51 l -0.35,0.84 c -0.49,-0.26 -1.37,-0.26 -1.7,0.26 -0.17,0.27 -0.23,0.54 -0.18,0.82 0.11,0.61 0.53,0.97 1.12,0.9 0.99,-0.12 1.66,-0.93 2.63,-0.9 0.46,0.02 1.01,0.13 1.48,0.41"
   id="path17919" />
		<polygon
   class="st8"
   points="-1770.15,-2893.86 -1769.58,-2894.56 -1763.01,-2890.45 -1763.58,-2889.74 "
   id="polygon17921" />
		<polygon
   class="st8"
   points="-1760.85,-2893.76 -1761.26,-2892.98 -1767.47,-2896.63 -1768.2,-2895.29 -1768.97,-2895.74 -1767.1,-2899.21 -1766.32,-2898.76 -1767.05,-2897.41 "
   id="polygon17923" />
		<polygon
   class="st8"
   points="-1765.56,-2902.85 -1765.19,-2903.88 -1761.4,-2900.5 -1758.88,-2899.42 -1759.18,-2898.56 -1761.52,-2899.47 -1766.91,-2899.6 -1766.65,-2900.46 -1762.89,-2900.4 "
   id="polygon17925" />
		<path
   class="st8"
   d="m -1817.05,-2884.95 c -0.67,0.67 -1.29,1.01 -1.87,1.03 -0.58,0.02 -1.1,-0.21 -1.58,-0.69 -0.43,-0.44 -0.64,-0.95 -0.64,-1.53 0,-0.3 0.09,-0.6 0.26,-0.91 l 0.85,0.52 c -0.08,0.15 -0.11,0.28 -0.12,0.42 -0.01,0.32 0.09,0.58 0.29,0.79 0.29,0.29 0.59,0.43 0.91,0.4 0.32,-0.03 0.7,-0.26 1.15,-0.72 l 3.79,-3.75 0.71,0.72 z"
   id="path17927" />
		<path
   class="st8"
   d="m -1804.16,-2886.26 -2.65,-1.65 0.24,-0.42 0.99,0.61 1.58,-2.75 -0.99,-0.61 0.21,-0.37 c 0.38,0.23 0.67,0.36 0.89,0.39 0.22,0.03 0.41,-0.06 0.56,-0.26 l 0.57,0.35 -2.12,3.7 0.96,0.6 z m 7.92,-1.68 c 0.04,-0.21 -0.03,-0.4 -0.22,-0.58 -0.19,-0.17 -0.48,-0.28 -0.87,-0.34 -0.35,-0.05 -0.66,-0.03 -0.91,0.07 -0.25,0.09 -0.4,0.25 -0.44,0.47 -0.03,0.15 0,0.3 0.09,0.42 0.09,0.12 0.24,0.25 0.46,0.37 0.09,0.05 0.24,0.12 0.43,0.21 0.2,0.09 0.37,0.16 0.54,0.23 0.31,-0.1 0.53,-0.22 0.66,-0.36 0.13,-0.13 0.22,-0.3 0.26,-0.49 m -0.35,2.38 c 0.04,-0.19 0.01,-0.36 -0.08,-0.48 -0.1,-0.13 -0.3,-0.28 -0.61,-0.44 -0.1,-0.05 -0.24,-0.12 -0.42,-0.19 -0.17,-0.07 -0.37,-0.16 -0.59,-0.25 -0.29,0.08 -0.53,0.19 -0.71,0.34 -0.18,0.15 -0.29,0.33 -0.33,0.55 -0.06,0.29 0.03,0.54 0.26,0.76 0.23,0.22 0.54,0.36 0.94,0.42 0.41,0.06 0.76,0.02 1.04,-0.1 0.28,-0.14 0.45,-0.34 0.5,-0.61 m -1.64,1.17 c -0.36,-0.05 -0.68,-0.13 -0.97,-0.24 -0.28,-0.11 -0.51,-0.25 -0.7,-0.4 -0.18,-0.16 -0.3,-0.33 -0.38,-0.52 -0.07,-0.19 -0.08,-0.38 -0.05,-0.57 0.05,-0.25 0.21,-0.47 0.46,-0.66 0.25,-0.18 0.59,-0.31 1.02,-0.38 v -0.02 c -0.33,-0.18 -0.57,-0.37 -0.71,-0.55 -0.14,-0.19 -0.18,-0.4 -0.14,-0.64 0.07,-0.36 0.34,-0.62 0.8,-0.8 0.46,-0.18 1.01,-0.22 1.65,-0.14 0.66,0.09 1.17,0.28 1.53,0.56 0.35,0.28 0.49,0.59 0.42,0.94 -0.04,0.21 -0.18,0.41 -0.41,0.59 -0.23,0.18 -0.54,0.3 -0.93,0.37 v 0.02 c 0.4,0.19 0.69,0.39 0.87,0.6 0.18,0.21 0.24,0.47 0.19,0.75 -0.08,0.4 -0.38,0.71 -0.88,0.92 -0.5,0.2 -1.1,0.26 -1.77,0.17 m 9.18,-2.91 c 0,-0.33 -0.04,-0.59 -0.13,-0.79 -0.09,-0.2 -0.21,-0.36 -0.37,-0.47 -0.14,-0.1 -0.28,-0.17 -0.43,-0.21 -0.14,-0.04 -0.3,-0.05 -0.47,-0.05 -0.4,0 -0.71,0.09 -0.94,0.28 -0.24,0.19 -0.35,0.46 -0.35,0.82 0,0.2 0.04,0.37 0.11,0.5 0.08,0.13 0.2,0.24 0.38,0.34 0.12,0.07 0.26,0.11 0.41,0.13 0.15,0.02 0.32,0.03 0.49,0.03 0.21,0 0.43,-0.02 0.66,-0.07 0.24,-0.05 0.44,-0.11 0.62,-0.19 0,-0.03 0.01,-0.07 0.01,-0.13 0.01,-0.07 0.01,-0.13 0.01,-0.19 m -3.68,-0.41 c 0,-0.25 0.06,-0.47 0.18,-0.67 0.12,-0.21 0.29,-0.38 0.49,-0.53 0.2,-0.14 0.44,-0.25 0.73,-0.33 0.29,-0.08 0.58,-0.12 0.87,-0.12 0.33,0 0.63,0.04 0.89,0.11 0.27,0.07 0.5,0.18 0.7,0.32 0.25,0.17 0.44,0.4 0.57,0.69 0.14,0.28 0.2,0.65 0.2,1.08 0,0.4 -0.07,0.77 -0.2,1.12 -0.13,0.36 -0.33,0.65 -0.59,0.88 -0.28,0.25 -0.61,0.44 -0.99,0.57 -0.39,0.13 -0.86,0.2 -1.43,0.2 -0.13,0 -0.26,-0.01 -0.41,-0.01 -0.14,-0.01 -0.28,-0.03 -0.41,-0.05 v -0.62 h 0.05 c 0.08,0.03 0.21,0.06 0.38,0.09 0.17,0.03 0.34,0.04 0.52,0.04 0.63,0 1.12,-0.14 1.48,-0.42 0.36,-0.27 0.56,-0.67 0.61,-1.18 -0.26,0.12 -0.5,0.2 -0.73,0.25 -0.23,0.05 -0.49,0.08 -0.76,0.08 -0.27,0 -0.51,-0.02 -0.72,-0.06 -0.22,-0.04 -0.44,-0.11 -0.66,-0.23 -0.26,-0.13 -0.45,-0.29 -0.58,-0.49 -0.12,-0.2 -0.19,-0.44 -0.19,-0.72 m 10.42,-4.08 -0.17,4.92 -0.75,0.47 0.07,-4.65 -2.88,1.4 -0.25,-0.55 3.61,-1.88 z"
   id="path17929" />
		<g
   id="g17935">
			<path
   class="st8"
   d="m -1780.74,-2931.62 c -0.58,-0.28 -0.17,-0.38 -0.14,-0.93 0.03,-0.47 -0.27,-1.01 -0.18,-1.34 0.25,-0.89 1.39,-0.55 2.02,-0.09 0.11,0.08 0.21,0.3 0.29,0.52 0.2,0.54 0.42,1.3 -0.2,1.68 -0.54,0.34 -1.29,0.4 -1.79,0.16"
   id="path17931" />
			<path
   class="st8"
   d="m -1787.44,-2934.24 c -0.02,-0.01 -0.04,-0.03 -0.05,-0.04 0.02,-0.07 0.04,-0.13 0.06,-0.19 0.21,-0.03 2.12,-0.7 2.13,-0.75 0.58,-0.27 1.11,-0.59 1.4,-1.17 -1.28,0.09 -2.62,0.69 -3.86,0.48 -0.54,-0.28 -0.85,-0.69 -1.21,-0.96 0.01,-0.03 0.01,-0.05 0.01,-0.07 -0.55,-0.58 -0.47,-1.14 0.3,-1.21 1.17,0.58 3.28,0.15 4.55,0 0.29,-0.05 1.11,-0.14 1.37,-0.33 0.67,-1.56 0.89,-3.24 1.37,-4.78 0.68,-1.03 1.19,-0.09 1.75,0.64 0.02,0.1 0.16,0.25 0.25,0.5 0.02,0 0.04,0.01 0.07,0.01 0.18,0.54 0.21,0.78 -0.35,1.1 -0.49,0.69 -0.85,1.5 -1.03,2.4 0.88,0.09 1.58,-0.53 2.56,-0.31 0.12,0.52 0,0.9 -0.52,1.17 -0.8,0.17 -1.66,0.29 -2.56,0.46 -0.39,0.78 -0.96,1.71 -1.71,2.23 -0.11,0.08 -0.62,0.36 -0.74,0.4 -0.6,0.18 -1.17,0.43 -1.78,0.45 -1.71,0.08 -1.71,0 -2.01,-0.03"
   id="path17933" />
		</g>
		<g
   id="g17947">
			<path
   class="st8"
   d="m -1806.87,-2928.56 c -0.71,-0.04 -1.53,-0.55 -2.04,-0.88 -0.01,-0.18 -0.02,-0.36 -0.01,-0.54 1,-1.61 2.01,-3.15 2.79,-4.91 0.15,-0.75 0.41,-1.57 0.6,-2.33 0.01,-0.02 0.04,-0.04 0.06,-0.05 -0.01,-0.02 -0.02,-0.04 -0.03,-0.06 0.25,-0.42 0.37,-0.56 0.86,-0.22 0.18,0.38 -0.36,1.06 -0.43,1.51 0,0.8 -0.03,1.62 -0.1,2.47 -0.06,0.17 -0.06,0.17 -0.22,1.09 -0.27,0.44 -0.47,1.41 -0.5,1.96 -0.34,0.43 -0.22,1.3 -0.65,1.78 -0.12,0.06 -0.22,0.12 -0.33,0.18"
   id="path17937" />
			<path
   class="st8"
   d="m -1800.48,-2936.8 c -0.89,0.3 -1.35,-0.16 -2.03,-0.47 -0.1,-0.23 -0.02,-0.42 -0.06,-0.58 0.2,-0.14 0.2,-0.14 0.3,-0.27 0.34,-0.19 0.48,-0.23 0.87,-0.41 0.45,-0.31 1.39,-1.7 1.97,-1.49 0.48,1.03 -0.25,2.55 -1.05,3.22"
   id="path17939" />
			<path
   class="st8"
   d="m -1807.83,-2935.83 c -0.45,-0.16 -1.04,-1.48 -1.23,-1.9 -0.05,-0.85 0.7,-1.18 1.52,-0.94 0.76,0.46 1.21,0.6 0.99,1.58 -0.39,0.75 -0.65,0.9 -1.28,1.26"
   id="path17941" />
			<path
   class="st8"
   d="m -1801.63,-2939.03 c -0.25,-0.37 -0.03,-1.47 -0.27,-1.62 -0.2,0.12 -0.39,0.28 -0.6,0.38 -0.62,-0.05 -1.45,-0.46 -1.43,-1.04 0.21,-0.59 0.11,-0.42 0.7,-0.7 0.47,-0.48 0.95,-0.96 1.44,-1.44 0.91,-0.56 1.57,-0.21 2,0.73 0.07,0.69 -0.15,1.34 -0.36,1.99 -0.41,0.49 -0.75,0.98 -1.1,1.48 -0.15,0.07 -0.26,0.15 -0.38,0.22"
   id="path17943" />
			<path
   class="st8"
   d="m -1808.06,-2939.69 c -0.28,-0.1 -0.23,-0.23 -0.19,-0.46 -0.18,-0.39 -0.55,-0.62 -0.73,-1 -0.15,-0.76 -0.39,-0.97 0.07,-1.54 0.54,0.02 2.45,0.21 2.42,1.25 -0.22,0.73 -0.97,1.42 -1.57,1.75"
   id="path17945" />
		</g>
		<path
   class="st8"
   d="m -1817.87,-2913.4 c -0.83,0.57 -2.82,0.19 -2.56,-1 -0.12,-0.11 -0.18,-0.33 -0.14,-0.46 -0.03,-0.02 -0.04,-0.03 -0.06,-0.03 -0.21,-1.25 -0.89,-2.44 -1.25,-3.62 -0.19,-0.37 -0.42,-0.66 -0.28,-1.06 0.28,-0.07 0.58,0.23 0.81,0.46 0.12,-0.03 0.26,-0.33 0.31,-0.53 -0.09,-0.83 -0.02,-1.78 -0.14,-2.62 -0.21,-0.18 -0.42,-0.37 -0.62,-0.56 -0.16,0.43 -0.7,1.81 -1.18,1.06 0.13,-0.57 0.21,-1.51 -0.11,-2.08 -0.41,-0.45 -1,-0.76 -1.18,-1.25 0.08,-0.68 1.12,-0.84 1.73,-0.57 0.49,0.04 0.49,-0.89 1.04,0.65 0.01,0.25 0.25,0.41 0.53,0.55 0.04,-0.05 0.09,-0.11 0.13,-0.17 -0.01,-0.65 -0.02,-1.36 0.03,-2.06 -0.61,-0.62 -1.12,-1.13 -1.48,-1.88 0,-0.72 0.81,-1.13 1.52,-1.34 0.23,-0.38 0.23,-0.72 0.22,-1.21 0.05,-0.16 0.05,-0.16 0.22,-0.4 0.24,0.02 0.44,0.11 0.72,0.27 0.56,0.73 -0.62,2.94 0.49,3.12 0.23,-0.37 -0.08,-0.77 -0.25,-1.08 0.06,-0.55 0.91,-1.24 1.51,-1.45 0.89,-0.08 0.83,0.42 0.84,1.18 0.04,0.11 0.08,0.21 0.13,0.31 1.12,0.82 1.12,0.82 2.69,1.87 0.3,0.47 0.41,0.73 0.53,1.29 0.02,0.01 0.03,0.02 0.05,0.03 -0.01,0.03 -0.03,0.04 -0.04,0.06 0.21,0.44 0.22,1.16 -0.31,1.23 -1.28,-0.87 -2.55,-1.85 -3.8,-2.65 -0.01,0.03 -0.02,0.06 -0.02,0.08 0.56,0.52 1.3,1.94 1.32,2.74 -0.31,0.51 -0.87,0.72 -1.39,0.58 -0.09,-0.14 -0.05,-0.25 -0.07,-0.42 -0.38,-0.66 -1.48,-1.3 -2.03,-1.68 -0.21,0.44 0.22,1.73 0.36,2.26 0.02,0.31 0.04,0.63 0.07,0.93 0.38,0.47 0.77,0.9 1.19,1.37 0.15,0.27 0.31,0.53 0.48,0.8 -0.01,0.02 -0.02,0.04 -0.03,0.06 0.18,0.4 0.59,1.57 -0.17,1.57 -0.07,-0.04 -0.14,-0.09 -0.21,-0.13 -0.24,-0.6 -0.7,-1.26 -1.2,-1.62 -0.18,0.6 0.05,1.23 -0.26,1.74 -0.25,0.24 -0.53,0.47 -0.76,0.59 -0.03,-0.01 -0.04,-0.02 -0.06,-0.03 -0.15,0.07 -0.35,0.11 -0.37,0.21 0.21,0.28 0.44,0.56 0.66,0.84 0.71,1.23 1.49,2.31 2.42,3.43 0.07,0.31 0.06,0.39 -0.03,0.62"
   id="path17949" />
		<path
   class="st8"
   d="m -1823.28,-2918.54 c -0.32,0 -0.49,-0.38 -0.73,-0.57 -0.89,-0.25 -1.55,-0.43 -1.85,-1.31 0.04,-0.08 0.08,-0.16 0.13,-0.23 0.46,-0.17 1.32,-0.28 1.9,-0.3 1.1,0.24 0.72,1.62 0.55,2.41"
   id="path17951" />
		<path
   class="st8"
   d="m -1825.6,-2921.15 c -0.19,0.14 -0.23,0.11 -0.31,0.1 -0.12,-0.21 -0.16,-0.36 -0.37,-0.45 -0.98,-0.02 -1.99,-0.76 -1.81,-1.76 0.18,-0.2 0.37,-0.08 0.74,0.03 0.83,-0.16 2.06,-0.68 2.11,0.65 -0.09,0.49 -0.24,0.98 -0.36,1.43"
   id="path17953" />
		<path
   class="st2"
   d="m -1775.03,-2919.89 -9.7,-0.01 c -2.83,0 -4.28,2.77 -5.35,5.28 l -1.63,-3.68 2.75,-1.01 c -1.61,-1.52 -6.61,-2.35 -7.27,-0.06 l -1.18,4.75 c -0.93,-2.14 -2.25,-5.27 -5.21,-5.27 h -9.84 c 1.28,2.26 2.5,3.08 7.03,2.88 l 0.59,1.56 -4.96,0.03 c 1.47,2.7 2.31,2.81 6.31,2.7 l 0.85,1.87 -3.9,0.14 c 0.84,1.91 1.72,2.73 5.07,2.57 l 0.65,1.65 -3.11,0.02 c 1.17,1.92 1.74,2.81 4.2,2.59 l 0.66,1.8 h -2.15 c 0.93,2.08 2.01,2.16 3.33,2.37 1.19,0.18 1.36,2.41 -0.03,3.12 l 4.17,6.78 4.18,-6.78 c -1.39,-0.72 -1.22,-2.94 -0.03,-3.12 1.32,-0.21 2.4,-0.29 3.33,-2.37 h -2.15 l 0.66,-1.8 c 2.46,0.22 3.03,-0.67 4.2,-2.59 l -3.1,-0.02 0.65,-1.66 c 3.35,0.16 4.23,-0.67 5.07,-2.57 l -3.9,-0.14 0.85,-1.87 c 3.99,0.11 4.84,0 6.31,-2.71 l -4.97,-0.02 0.6,-1.56 c 4.51,0.21 5.73,-0.61 7.02,-2.87"
   id="path17955" />
		<path
   class="st2"
   d="m -1760.26,-2924.53 0.04,-0.09 c 0.14,-0.35 0.13,-0.49 0.1,-0.55 -0.04,-0.08 -0.19,-0.13 -0.44,-0.19 -0.06,-0.02 -0.14,-0.03 -0.22,-0.04 l -0.13,-0.02 -0.04,-0.1 c -0.05,-0.05 -0.09,-0.1 -0.15,-0.15 l -0.19,-0.06 -0.04,-0.02 0.24,-0.18 c 0.17,-0.13 0.37,-0.19 0.58,-0.26 l 0.02,-0.06 0.1,0.04 c 0.34,-0.3 0.57,-0.73 0.6,-1.18 -0.1,-0.14 -0.28,-0.21 -0.55,-0.21 -0.34,0 -0.76,0.14 -1.12,0.25 -0.23,0.07 -0.51,0.16 -0.75,0.21 l -0.09,-0.04 c -0.62,-0.3 -0.65,-0.31 -1.94,-0.99 -0.09,0.06 -0.17,0.15 -0.21,0.26 -0.08,0.19 -0.07,0.4 0.04,0.6 l 0.12,0.09 0.01,0.01 v 0 l -0.31,0.16 c -0.07,0.04 -0.09,0.05 -0.08,0.05 v 0 l -0.09,0.08 c 0.01,0.03 0.03,0.09 0.08,0.17 l 0.02,0.14 c 0,0.12 -0.03,0.17 -0.12,0.28 l -0.04,0.15 -0.01,0.02 v 0 l -0.19,-0.15 c -0.25,-0.19 -0.27,-0.21 -0.45,-0.39 -0.05,-0.01 -0.1,-0.01 -0.16,-0.01 -0.14,0.01 -0.26,0.05 -0.31,0.12 -0.05,0.08 -0.05,0.17 0.01,0.31 l -0.02,0.07 c -0.04,0.19 -0.2,0.5 -0.77,0.51 l -0.3,-0.01 c -0.06,0 -0.11,0 -0.21,0.05 0,0.39 0.17,0.42 0.58,0.49 0.15,0.02 0.32,0.05 0.54,0.1 0.04,-0.02 0.08,-0.02 0.12,-0.02 0.09,0 0.16,0.03 0.24,0.07 l 0.31,0.12 0.11,0.03 0.05,0.02 -0.37,0.18 c -0.14,0.07 -0.24,0.12 -0.38,0.27 -0.03,0.11 -0.08,0.21 -0.17,0.32 l -0.01,0.09 -0.16,-0.04 c -0.28,-0.07 -0.56,-0.14 -0.83,-0.21 l -0.43,-0.11 c -0.76,-0.2 -1.71,-0.45 -2.59,-0.6 -0.21,-0.08 -0.42,-0.12 -0.62,-0.15 l -0.42,-0.05 -0.02,0.12 c 0.1,0.08 0.24,0.18 0.45,0.32 l 0.03,0.07 c 0.12,0.29 0.32,0.66 0.78,0.91 0.3,0.05 0.63,0.09 1,0.13 1.11,0.13 2.26,0.26 3.16,0.94 l 0.23,0.12 h 0.06 0.01 v 0 l -0.33,0.17 c -0.08,0.04 -0.16,0.09 -0.26,0.18 l -0.1,-0.02 c -1.07,-0.24 -1.07,-0.24 -1.45,-0.36 -0.38,-0.25 -0.57,-0.33 -0.78,-0.33 -0.16,0 -0.34,0.07 -0.64,0.25 -0.02,0.01 -0.03,0.01 -0.05,0.02 l -0.02,0.01 c -0.01,0.01 -0.02,0.01 -0.03,0.02 l -0.11,-0.04 c -0.12,-0.04 -0.12,-0.04 -0.44,-0.09 -0.3,-0.1 -0.6,-0.21 -0.93,-0.31 -0.92,-0.3 -1.88,-0.61 -2.67,-1.14 -0.23,-0.2 -0.39,-0.38 -0.52,-0.53 -0.04,-0.05 -0.07,-0.08 -0.1,-0.08 0,0 -0.01,0 -0.01,0 l -0.08,-0.1 c -0.06,0.02 -0.16,0.11 -0.32,0.28 -0.17,0.53 0.31,1.78 0.73,2.14 0.3,0.13 0.62,0.19 0.96,0.25 0.56,0.11 1.14,0.22 1.7,0.68 l 0.15,0.04 0.01,0.01 v 0 l -0.14,0.19 c -0.18,0.24 -0.39,0.44 -0.63,0.66 l -0.11,0.09 c -0.07,0.06 -0.14,0.12 -0.19,0.18 l -0.11,0.01 c -0.08,0.01 -0.15,0.02 -0.24,0.02 -0.41,0 -0.77,-0.2 -1.08,-0.37 -0.1,-0.06 -0.2,-0.11 -0.35,-0.14 l -0.06,0.1 c 0.43,0.74 1.02,1.42 1.8,2.06 l 0.06,0.11 c 0.1,0.05 0.19,0.08 0.29,0.08 h 0.01 c 0.56,-0.01 1.17,-0.78 1.61,-1.35 0.1,-0.12 0.19,-0.23 0.29,-0.34 l 0.11,-0.08 c 0.42,-0.31 0.45,-0.34 0.44,-0.34 l 0.11,0.03 c 0.36,0.1 0.58,0.23 0.92,0.42 0.33,-0.14 0.67,-0.48 0.64,-0.84 l -0.14,-0.13 c -0.2,-0.18 -0.4,-0.37 -0.61,-0.55 l -0.11,-0.02 0.07,-0.17 c 0.08,-0.18 0.18,-0.29 0.33,-0.43 l 0.02,-0.07 0.14,0.03 c 0.6,0.14 1.14,0.3 1.8,0.51 l 0.58,0.19 0.14,0.1 c 0.33,0.25 0.57,0.43 0.94,0.43 0.06,0 0.11,-0.01 0.21,-0.04 0.36,-0.36 0.56,-0.61 0.7,-0.89 v 0 c 0,-0.01 0.01,-0.01 0.01,-0.02 -0.11,-0.16 -0.16,-0.21 -0.18,-0.21 l 0.11,-0.12 c 0.03,-0.04 0.07,-0.07 0.17,-0.13 0.98,-0.31 2.03,-0.69 2.81,-0.97 0.47,-0.29 0.52,-0.32 0.35,-0.76 -0.03,-0.08 -0.07,-0.16 -0.12,-0.28 m -3.8,0.58 0.16,-0.14 c 0.22,-0.2 0.31,-0.3 0.34,-0.4 -0.01,-0.04 -0.05,-0.09 -0.15,-0.16 l -0.05,-0.01 c -0.03,0 -0.06,0.01 -0.1,0.01 -0.17,0 -0.28,-0.08 -0.34,-0.16 l -0.07,-0.06 v -0.08 l 0.06,-0.2 -0.04,-0.01 0.21,-0.07 c 0.71,-0.24 0.71,-0.24 0.83,-0.31 l 0.05,-0.09 0.14,0.12 c 0.15,0.13 0.65,0.58 0.73,1.16 l -0.07,0.08 c -0.38,0.45 -0.9,0.53 -1.4,0.55 l -0.13,0.03 -0.07,-0.21 z"
   id="path17957" />
		<path
   class="st2"
   d="m -1768.2,-2925.66 c -0.22,0 -0.42,-0.07 -0.6,-0.2 -0.12,-0.46 0.23,-0.96 0.48,-1.32 0.09,-0.12 0.15,-0.22 0.2,-0.31 l 0.04,-0.11 0.08,-0.16 c 0.1,-0.2 0.2,-0.39 0.29,-0.61 0.04,-0.11 0.06,-0.22 0.09,-0.32 0.15,-0.6 0.27,-0.98 0.57,-1.09 0.23,0.04 0.35,0.07 0.41,0.16 0.06,0.09 0.04,0.21 -0.01,0.44 l -0.04,0.08 c 0.03,0.08 0.05,0.18 0.06,0.29 0.07,0.36 0.09,0.73 0.05,1.06 l -0.02,0.14 c -0.02,0.13 -0.05,0.24 -0.09,0.36 -0.14,0.43 -0.3,0.92 -0.61,1.2 l -0.13,0.12 -0.09,0.05 c -0.21,0.14 -0.45,0.21 -0.67,0.22 z"
   id="path17959" />
		<path
   class="st2"
   d="m -1768.2,-2925.68 h 0.02 c 0.22,-0.01 0.45,-0.08 0.66,-0.22 l 0.08,-0.05 0.13,-0.12 c 0.31,-0.28 0.47,-0.76 0.6,-1.19 0.04,-0.11 0.08,-0.22 0.09,-0.35 l 0.02,-0.13 c 0.04,-0.37 0.02,-0.73 -0.05,-1.06 -0.01,-0.1 -0.03,-0.2 -0.04,-0.3 h -0.02 l 0.04,-0.08 c 0.04,-0.22 0.07,-0.35 0.01,-0.42 -0.05,-0.08 -0.16,-0.11 -0.39,-0.15 -0.29,0.11 -0.4,0.47 -0.55,1.04 -0.03,0.12 -0.06,0.23 -0.1,0.36 -0.1,0.22 -0.19,0.41 -0.29,0.61 l -0.09,0.16 -0.04,0.11 c -0.05,0.09 -0.12,0.18 -0.2,0.3 -0.25,0.36 -0.59,0.85 -0.49,1.3 0.2,0.12 0.4,0.19 0.61,0.19"
   id="path17961" />
		<path
   class="st2"
   d="m -1770.34,-2926.21 c -0.11,0 -0.24,-0.06 -0.49,-0.21 -0.33,-0.74 0.85,-1.58 0.98,-1.67 0.19,0.05 0.3,0.15 0.37,0.33 0.13,0.37 0.04,0.9 -0.22,1.21 -0.35,0.24 -0.5,0.34 -0.64,0.34 z"
   id="path17963" />
		<path
   class="st2"
   d="m -1770.34,-2926.23 v 0 c 0.13,0 0.28,-0.1 0.63,-0.34 0.25,-0.3 0.34,-0.82 0.21,-1.18 -0.06,-0.17 -0.16,-0.28 -0.33,-0.32 -0.13,0.1 -1.29,0.92 -0.98,1.64 0.24,0.14 0.37,0.2 0.47,0.2"
   id="path17965" />
	</g><g
     id="g18367"
     transform="translate(1990.2323,3027.8538)">
		<g
   id="g18327">
			<path
   class="st8"
   d="m -1750.18,-2819.16 c -2.12,-0.45 -0.86,-1.12 -1.19,-2.93 -0.29,-1.56 -1.7,-3.09 -1.66,-4.24 0.12,-3.12 4.12,-2.92 6.54,-1.93 0.44,0.18 0.94,0.83 1.38,1.47 1.11,1.6 2.42,3.93 0.69,5.69 -1.48,1.52 -3.92,2.34 -5.76,1.94"
   id="path18303" />
			<path
   class="st8"
   d="m -1774.27,-2822.41 c -0.07,-0.03 -0.14,-0.06 -0.21,-0.09 0.02,-0.24 0.03,-0.47 0.05,-0.68 0.66,-0.25 6.42,-4.01 6.41,-4.17 1.68,-1.34 3.18,-2.82 3.66,-4.98 -4.13,1.35 -8.04,4.36 -12.32,4.68 -1.98,-0.49 -3.34,-1.57 -4.73,-2.17 -0.01,-0.1 -0.01,-0.17 -0.02,-0.23 -2.26,-1.48 -2.47,-3.38 0.02,-4.2 4.3,0.95 10.89,-2.12 14.94,-3.67 0.91,-0.4 3.53,-1.33 4.24,-2.16 0.95,-5.68 0.33,-11.38 0.67,-16.81 1.39,-3.93 3.84,-1.26 6.26,0.71 0.16,0.33 0.72,0.69 1.21,1.43 0.07,0 0.13,-0.01 0.23,-0.02 1.03,1.63 1.32,2.39 -0.28,3.92 -1.08,2.66 -1.6,5.63 -1.47,8.71 2.96,-0.42 4.74,-3.01 8.17,-3.06 0.82,1.59 0.72,2.94 -0.8,4.26 -2.5,1.19 -5.2,2.27 -8.03,3.55 -0.66,2.87 -1.8,6.38 -3.82,8.71 -0.3,0.34 -1.76,1.7 -2.11,1.9 -1.83,1.07 -3.48,2.36 -5.49,2.93 -5.52,1.56 -5.58,1.3 -6.58,1.44"
   id="path18305" />
			<path
   class="st8"
   d="m -1827.34,-2812.72 c -2.04,-0.94 -3.9,-3.4 -5,-4.94 0.19,-0.55 0.37,-1.09 0.59,-1.61 4.81,-3.6 9.58,-6.95 13.94,-11.25 1.32,-2.03 3.05,-4.15 4.46,-6.16 0.06,-0.03 0.16,-0.07 0.25,-0.08 -0.01,-0.09 -0.01,-0.16 -0.02,-0.22 1.23,-0.96 1.75,-1.21 2.79,0.36 0.08,1.31 -2.29,2.72 -3.03,3.96 -0.92,2.35 -1.97,4.74 -3.17,7.15 -0.38,0.43 -0.38,0.43 -1.92,2.95 -1.29,1 -3.02,3.62 -3.74,5.2 -1.52,0.88 -2.17,3.57 -4,4.5 -0.4,0.03 -0.77,0.09 -1.15,0.14"
   id="path18307" />
			<path
   class="st8"
   d="m -1798.92,-2829.59 c -2.97,-0.13 -3.81,-2.03 -5.43,-3.75 -0.05,-0.78 0.43,-1.25 0.49,-1.79 0.74,-0.17 0.74,-0.17 1.2,-0.45 1.25,-0.17 1.69,-0.11 3.04,-0.19 1.71,-0.39 6.08,-3.4 7.55,-2.11 0.22,3.61 -3.71,7.25 -6.85,8.29"
   id="path18309" />
			<path
   class="st8"
   d="m -1821.72,-2835.28 c -1.13,-1 -1.36,-5.58 -1.45,-7.02 0.85,-2.57 3.42,-2.66 5.58,-1 1.71,2.25 2.87,3.19 1.08,5.81 -2.03,1.76 -2.93,1.88 -5.21,2.21"
   id="path18311" />
			<path
   class="st8"
   d="m -1799.73,-2837.5 c -0.31,-1.4 1.61,-4.38 1.06,-5.1 -0.72,0.11 -1.46,0.38 -2.21,0.42 -1.78,-0.86 -3.75,-3.04 -3.03,-4.72 1.32,-1.5 0.81,-1.12 2.88,-1.25 1.96,-0.88 3.92,-1.72 5.92,-2.57 3.33,-0.62 4.86,1.21 5.07,4.46 -0.59,2.11 -2,3.78 -3.38,5.44 -1.77,0.96 -3.37,2.03 -4.97,3.08 -0.47,0.06 -0.9,0.15 -1.34,0.24"
   id="path18313" />
			<path
   class="st8"
   d="m -1817.95,-2846.93 c -0.7,-0.62 -0.41,-0.95 -0.04,-1.57 -0.09,-1.38 -0.91,-2.49 -0.99,-3.81 0.45,-2.42 -0.02,-3.3 1.99,-4.46 1.56,0.69 6.99,3.46 5.7,6.5 -1.49,1.88 -4.5,3.08 -6.66,3.34"
   id="path18315" />
			<path
   class="st8"
   d="m -1888.23,-2810.46 c -3.22,-1.24 -6.05,-7.63 -2.15,-9.2 0.1,-0.56 0.58,-1.13 1.05,-1.3 -0.01,-0.1 -0.01,-0.17 -0.02,-0.24 3.13,-3.03 5.19,-7.27 7.82,-10.61 0.67,-1.27 1.04,-2.49 2.49,-2.86 0.72,0.64 0.47,2.1 0.27,3.2 0.32,0.29 1.44,0.08 2.11,-0.13 2.18,-1.88 5.02,-3.53 7.18,-5.5 0.11,-0.97 0.22,-1.94 0.37,-2.87 -1.52,0.37 -6.51,1.54 -5.31,-1.28 1.87,-0.73 4.71,-2.34 5.71,-4.36 0.49,-2.04 0.21,-4.32 1.25,-5.79 2.09,-1.09 4.58,1.56 5,3.83 0.84,1.49 3.47,-0.36 0.19,4.23 -0.69,0.51 -0.66,1.51 -0.52,2.56 0.24,0.02 0.48,0.04 0.72,0.06 1.83,-1.31 3.83,-2.74 5.91,-3.93 0.57,-2.94 1.03,-5.4 2.45,-7.88 2.03,-1.39 4.8,0.11 6.78,1.7 1.54,-0.1 2.48,-0.74 3.86,-1.75 0.54,-0.17 0.54,-0.17 1.57,-0.16 0.42,0.73 0.57,1.47 0.63,2.56 -0.98,3 -9.57,3.98 -7.92,7.47 1.5,-0.09 2.02,-1.73 2.57,-2.83 1.69,-0.89 5.31,0.18 7.07,1.47 1.96,2.38 0.44,3.19 -1.73,4.69 -0.22,0.32 -0.44,0.64 -0.62,0.96 -0.15,4.8 -0.15,4.8 -0.08,11.3 -0.75,1.76 -1.27,2.61 -2.62,4.03 0.01,0.07 0.01,0.14 0.02,0.2 -0.1,0 -0.17,0.01 -0.24,0.01 -0.83,1.45 -2.86,2.88 -4.08,1.52 -0.02,-5.34 0.28,-10.86 0.1,-15.94 -0.1,0.01 -0.2,0.04 -0.27,0.09 -0.39,2.59 -2.99,7.47 -5.22,9.08 -2.05,0.13 -3.76,-1.07 -4.35,-2.81 0.21,-0.52 0.61,-0.65 1.03,-1.02 1.15,-2.36 0.81,-6.72 0.81,-9.05 -1.66,0.24 -4.47,4.01 -5.72,5.42 -0.85,0.67 -1.7,1.34 -2.51,2.01 -0.59,1.98 -1.06,3.93 -1.57,6.05 -0.46,0.95 -0.91,1.94 -1.36,2.92 -0.11,0.01 -0.17,0.01 -0.24,0.01 -0.77,1.31 -3.3,4.76 -4.8,2.59 -0.02,-0.31 -0.04,-0.58 -0.02,-0.85 1.25,-1.86 2.22,-4.45 2.26,-6.57 -2.04,0.68 -3.4,2.54 -5.44,2.67 -1.18,-0.24 -2.37,-0.61 -3.14,-1 -0.01,-0.1 -0.01,-0.17 -0.02,-0.24 -0.5,-0.31 -1.01,-0.76 -1.31,-0.64 -0.37,1.15 -0.74,2.34 -1.08,3.52 -2.12,4.41 -3.66,8.74 -5.04,13.58 -0.77,0.77 -1.03,0.89 -1.84,1.08"
   id="path18317" />
			<path
   class="st8"
   d="m -1884.2,-2835.85 c -0.64,-0.92 0.14,-2.13 0.18,-3.19 -1.01,-3.01 -1.8,-5.26 0.13,-7.81 0.31,-0.05 0.61,-0.07 0.92,-0.09 1.4,0.97 3.38,3.21 4.58,4.81 1.45,3.6 -3.21,5.22 -5.81,6.28"
   id="path18319" />
			<path
   class="st8"
   d="m -1881.3,-2847.53 c -0.77,-0.26 -0.75,-0.43 -0.9,-0.7 0.36,-0.74 0.71,-1.17 0.56,-1.91 -1.85,-2.83 -1.74,-7.14 1.45,-8.57 0.93,0.11 0.95,0.9 1.37,2.17 2.08,2.02 5.95,4.52 2.28,7.26 -1.55,0.68 -3.22,1.21 -4.76,1.75"
   id="path18321" />
			<path
   class="st8"
   d="m -1727.2,-2836.46 c -2.89,-0.9 -2.35,-5.65 -1.86,-7.57 2.11,-1.34 4.88,1.45 5.04,3.93 -0.54,2.73 -0.51,3.13 -3.18,3.64"
   id="path18323" />
			<path
   class="st8"
   d="m -1711.57,-2814.57 c -0.11,-0.06 -0.18,-0.13 -0.25,-0.15 -3.7,0.23 -7.22,-0.12 -10.54,-1.3 -0.15,-0.29 -0.15,-0.29 -0.18,-0.73 1.95,-1.13 4.7,-0.83 6.2,-2.88 0.23,-1.6 0.42,-2.96 0.27,-4.33 -3.66,0.23 -5.62,2.81 -8.53,3.86 -2.48,0.16 -6.91,-2.09 -7.64,-4.07 0,-3.2 0.66,-1.76 4.09,-1.97 4.07,-0.72 8.14,-3.06 12.08,-4.79 0.83,-0.63 0.83,-0.63 1.3,-0.82 0.88,-2.65 1.49,-3.12 4.26,-3.67 1.08,-0.54 1.08,-0.54 4.23,-2.45 0.08,-0.31 0.16,-0.62 0.28,-0.93 -4.79,0.57 -8.66,4.45 -12.48,7.01 -1.89,0.52 -3.33,0.21 -4.64,-0.39 -0.84,0.12 -5.61,0.95 -3.3,-0.94 1.42,-0.56 2.5,-1.57 4.01,-2.23 3.59,-2.42 7.75,-4.49 11.62,-6.72 -0.04,-0.6 -0.26,-0.93 -0.37,-1.09 0.02,-0.81 0.16,-1.22 0.39,-1.85 -0.73,0.25 -0.93,0.2 -1.07,0.74 -2.3,1.02 -3.28,3.1 -5.21,0.9 -0.52,2.02 -1.94,3.42 -3.96,3.55 -2.06,-1.05 -2.1,-4.49 -2.47,-6.08 -0.15,-0.19 -0.43,-1.52 -1,-3.07 -0.93,-1.89 -2.64,-4.01 -1.5,-5.73 1.46,-0.9 2.04,-1.23 3.28,0.74 1.06,0.81 2.41,1.91 3.48,3.32 0.07,-0.01 0.14,-0.01 0.24,-0.02 0.65,1.75 2.24,4.04 2.08,6.27 1.07,-0.64 2.62,-1.88 1.82,-3.25 -1.78,-0.96 -0.77,-2.61 0.48,-3.23 0.88,0.05 0.88,0.05 2.02,-0.06 -0.03,-0.43 -0.06,-0.43 -0.28,-0.69 -1.48,-0.51 -1.2,-0.87 -0.8,-2.07 -1.73,-0.63 -2.38,-2.44 -1.72,-3.73 5.01,-1.25 5.01,-1.25 7.36,-2.01 1.56,-1.95 3.25,-7.27 6.28,-6.29 0.94,1.13 1.6,3 1.42,4.87 -0.39,0.8 -0.92,1.48 -1.07,2.36 0.3,-0.02 0.61,-0.01 0.91,0.01 2.1,-1.04 3.06,-2.28 4.3,0.84 2.02,1.09 2.75,0.81 1.99,3.75 -1.47,2.95 -3.06,6.12 -4.7,9.08 -0.03,0.14 -0.05,0.27 -0.04,0.4 0.38,0.08 0.75,0.16 1.13,0.27 0.22,1.33 0.26,2.98 0.22,4.6 -1.26,1.86 -2.85,1.86 -4.86,2.12 -2.55,1.27 -4.84,2.32 -7.25,3.75 -0.01,0.47 -0.08,0.95 0.17,1.57 1.21,-0.04 2.46,-0.05 3.71,-0.06 1.37,0.89 1.26,3.39 0.41,4.85 -1.41,0.19 -2.24,0.38 -3.31,0.95 -0.13,0.68 -0.25,1.36 -0.38,2.08 0.09,2.68 1.47,9.1 -2.48,9.71 m 7.85,-32.75 c 1.24,-1.26 2.1,-2.49 2,-4.2 -1.03,-0.91 -2.83,-1.03 -3.9,-0.97 -0.14,0.48 -0.14,0.48 -1.38,2.78 0.11,0.06 0.24,0.12 0.38,0.18 -0.13,0.04 -0.27,0.08 -0.36,0.16 0.01,0.07 0.04,0.13 0.08,0.23 0.54,0.07 0.85,-0.35 1.1,-0.74 1.94,-0.32 1.98,0.38 1.84,2.45 0.06,0.02 0.13,0.05 0.24,0.11"
   id="path18325" />
		</g>
		<g
   id="g18365">
			<polygon
   class="st2"
   points="-1875.34,-2806.28 -1875.34,-2805.74 -1875.34,-2805.2 -1881.01,-2798.19 -1875.35,-2798.19 -1875.35,-2797.64 -1875.35,-2797.09 -1882.57,-2797.09 -1882.57,-2797.63 -1882.57,-2798.17 -1876.9,-2805.18 -1882.12,-2805.18 -1882.12,-2805.73 -1882.12,-2806.28 "
   id="polygon18329" />
			<polygon
   class="st2"
   points="-1871.9,-2806.28 -1871.28,-2806.28 -1871.28,-2802.51 -1866.48,-2802.51 -1866.48,-2806.28 -1865.86,-2806.28 -1865.23,-2806.28 -1865.23,-2797.09 -1865.85,-2797.09 -1866.48,-2797.09 -1866.48,-2801.41 -1871.28,-2801.41 -1871.28,-2797.09 -1871.89,-2797.09 -1872.52,-2797.09 -1872.52,-2806.28 "
   id="polygon18331" />
			<polygon
   class="st2"
   points="-1855.16,-2805.73 -1855.16,-2805.18 -1860.64,-2805.18 -1860.64,-2802.37 -1855.63,-2802.37 -1855.63,-2801.82 -1855.63,-2801.27 -1860.64,-2801.27 -1860.64,-2798.19 -1855.09,-2798.19 -1855.09,-2797.64 -1855.09,-2797.09 -1861.88,-2797.09 -1861.88,-2806.28 -1855.16,-2806.28 "
   id="polygon18333" />
			<path
   class="st2"
   d="m -1848.67,-2806.28 h 0.62 0.62 v 6.61 c 0,0.9 -0.23,1.6 -0.69,2.09 -0.45,0.49 -1.1,0.74 -1.94,0.74 -0.86,0 -1.52,-0.23 -1.99,-0.68 -0.47,-0.46 -0.68,-1.09 -0.64,-1.9 v -0.63 h 1.16 v 0.63 c 0,0.49 0.12,0.86 0.36,1.13 0.24,0.27 0.59,0.4 1.03,0.4 0.45,0 0.81,-0.16 1.07,-0.48 0.26,-0.32 0.39,-0.75 0.39,-1.3 v -6.61 z"
   id="path18335" />
			<polygon
   class="st2"
   points="-1842.81,-2797.09 -1843.43,-2797.09 -1844.06,-2797.09 -1844.06,-2806.28 -1843.44,-2806.28 -1842.81,-2806.28 "
   id="polygon18337" />
			<path
   class="st2"
   d="m -1836.73,-2806.28 h 0.7 0.71 l 3.3,9.19 h -0.67 -0.67 l -0.93,-2.67 h -3.68 l -0.96,2.67 h -0.64 -0.64 z m -0.83,5.43 h 2.89 l -1.42,-4.08 h 0.01 z"
   id="path18339" />
			<polygon
   class="st2"
   points="-1828.1,-2806.28 -1823.5,-2798.81 -1823.5,-2806.28 -1822.89,-2806.28 -1822.3,-2806.28 -1822.3,-2797.09 -1822.98,-2797.09 -1823.65,-2797.09 -1828.39,-2804.59 -1828.39,-2797.09 -1828.99,-2797.09 -1829.59,-2797.09 -1829.59,-2806.28 -1828.85,-2806.28 "
   id="polygon18341" />
			<path
   class="st2"
   d="m -1814.64,-2796.84 c -1.28,0 -2.31,-0.44 -3.09,-1.33 -0.79,-0.89 -1.18,-2.06 -1.18,-3.5 0,-1.45 0.4,-2.63 1.21,-3.52 0.8,-0.89 1.85,-1.33 3.16,-1.33 1.01,0 1.87,0.28 2.59,0.84 0.72,0.56 1.15,1.28 1.27,2.16 h -1.2 c -0.12,-0.61 -0.41,-1.08 -0.88,-1.41 -0.48,-0.33 -1.1,-0.5 -1.85,-0.5 -0.9,0 -1.62,0.35 -2.18,1.04 -0.55,0.69 -0.83,1.6 -0.83,2.73 0,1.2 0.27,2.12 0.81,2.78 0.53,0.65 1.29,0.98 2.26,0.98 0.95,0 1.71,-0.35 2.29,-1.04 0.09,-0.11 0.18,-0.22 0.25,-0.35 0.1,-0.16 0.18,-0.39 0.25,-0.68 0.06,-0.29 0.1,-0.57 0.1,-0.83 v -0.11 h -2.88 v -1.05 h 4.02 v 4.86 h -0.78 l -0.3,-1.15 -0.07,0.08 c -0.75,0.89 -1.74,1.33 -2.97,1.33"
   id="path18343" />
			<path
   class="st2"
   d="m -1794.7,-2800.46 c 0,1.14 -0.32,2.02 -0.95,2.66 -0.64,0.64 -1.52,0.96 -2.66,0.96 -1.18,0 -2.08,-0.31 -2.7,-0.92 -0.61,-0.62 -0.93,-1.52 -0.93,-2.7 v -5.82 h 0.62 0.63 v 5.73 c 0,0.85 0.2,1.5 0.61,1.95 0.4,0.44 0.99,0.66 1.77,0.66 0.77,0 1.36,-0.22 1.77,-0.66 0.4,-0.45 0.6,-1.09 0.6,-1.95 v -5.73 h 0.62 0.62 z"
   id="path18345" />
			<polygon
   class="st2"
   points="-1789.69,-2806.28 -1785.09,-2798.81 -1785.09,-2806.28 -1784.49,-2806.28 -1783.89,-2806.28 -1783.89,-2797.09 -1784.57,-2797.09 -1785.25,-2797.09 -1789.98,-2804.59 -1789.98,-2797.09 -1790.58,-2797.09 -1791.18,-2797.09 -1791.18,-2806.28 -1790.44,-2806.28 "
   id="polygon18347" />
			<polygon
   class="st2"
   points="-1779.23,-2797.09 -1779.84,-2797.09 -1780.47,-2797.09 -1780.47,-2806.28 -1779.85,-2806.28 -1779.23,-2806.28 "
   id="polygon18349" />
			<polygon
   class="st2"
   points="-1776.79,-2806.28 -1776.11,-2806.28 -1775.41,-2806.28 -1772.78,-2798.42 -1772.77,-2798.42 -1770.14,-2806.28 -1769.45,-2806.28 -1768.77,-2806.28 -1772.11,-2797.09 -1772.78,-2797.09 -1773.45,-2797.09 "
   id="polygon18351" />
			<polygon
   class="st2"
   points="-1759.67,-2805.73 -1759.67,-2805.18 -1765.14,-2805.18 -1765.14,-2802.37 -1760.14,-2802.37 -1760.14,-2801.82 -1760.14,-2801.27 -1765.14,-2801.27 -1765.14,-2798.19 -1759.59,-2798.19 -1759.59,-2797.64 -1759.59,-2797.09 -1766.39,-2797.09 -1766.39,-2806.28 -1759.67,-2806.28 "
   id="polygon18353" />
			<path
   class="st2"
   d="m -1756.28,-2806.28 h 0.62 3.66 c 0.97,0 1.72,0.21 2.23,0.64 0.51,0.42 0.76,1.04 0.76,1.86 0,0.8 -0.27,1.43 -0.79,1.89 -0.13,0.12 -0.28,0.21 -0.43,0.3 l 0.21,0.1 c 0.56,0.33 0.85,0.86 0.87,1.62 l 0.05,1.67 c 0.01,0.28 0.04,0.48 0.11,0.6 0.06,0.12 0.18,0.23 0.36,0.31 v 0.2 h -1.53 c -0.03,-0.07 -0.07,-0.27 -0.1,-0.59 -0.04,-0.32 -0.06,-0.67 -0.07,-1.05 l -0.03,-0.73 c -0.02,-0.57 -0.15,-0.98 -0.42,-1.22 -0.26,-0.25 -0.69,-0.37 -1.29,-0.37 h -2.95 v 3.96 h -0.61 -0.62 v -9.19 z m 1.24,4.15 h 3.08 c 0.58,0 1,-0.13 1.26,-0.38 0.27,-0.25 0.4,-0.65 0.4,-1.2 0,-0.53 -0.14,-0.92 -0.42,-1.16 -0.28,-0.25 -0.72,-0.37 -1.33,-0.37 h -2.98 v 3.11 z"
   id="path18355" />
			<path
   class="st2"
   d="m -1740.05,-2803.61 c -0.05,-0.58 -0.28,-1.03 -0.69,-1.35 -0.4,-0.31 -0.94,-0.47 -1.62,-0.47 -0.7,0 -1.23,0.14 -1.6,0.41 -0.36,0.27 -0.54,0.67 -0.54,1.19 0,0.36 0.12,0.62 0.36,0.8 0.24,0.17 0.73,0.35 1.46,0.52 l 1.6,0.38 c 0.85,0.2 1.47,0.5 1.83,0.9 0.37,0.39 0.56,0.96 0.56,1.68 0,0.83 -0.31,1.5 -0.95,1.98 -0.63,0.49 -1.49,0.73 -2.56,0.73 -1.2,0 -2.14,-0.28 -2.81,-0.84 -0.66,-0.56 -0.99,-1.31 -0.99,-2.28 v -0.07 h 1.15 c 0.02,0.67 0.26,1.18 0.73,1.54 0.47,0.36 1.11,0.54 1.93,0.54 0.76,0 1.34,-0.13 1.74,-0.39 0.39,-0.26 0.59,-0.65 0.59,-1.16 0,-0.44 -0.13,-0.77 -0.39,-0.98 -0.26,-0.21 -0.78,-0.41 -1.56,-0.6 l -1.6,-0.38 c -0.81,-0.19 -1.39,-0.46 -1.74,-0.8 -0.34,-0.34 -0.51,-0.82 -0.51,-1.42 0,-0.88 0.3,-1.57 0.89,-2.09 0.6,-0.52 1.41,-0.77 2.42,-0.77 1.03,0 1.86,0.26 2.47,0.77 0.61,0.52 0.94,1.23 0.98,2.14 h -1.15 z"
   id="path18357" />
			<polygon
   class="st2"
   points="-1734.4,-2797.09 -1735.02,-2797.09 -1735.64,-2797.09 -1735.64,-2806.28 -1735.03,-2806.28 -1734.4,-2806.28 "
   id="polygon18359" />
			<polygon
   class="st2"
   points="-1728.68,-2805.18 -1731.79,-2805.18 -1731.79,-2805.73 -1731.79,-2806.28 -1724.33,-2806.28 -1724.33,-2805.73 -1724.33,-2805.18 -1727.44,-2805.18 -1727.44,-2797.09 -1728.05,-2797.09 -1728.68,-2797.09 "
   id="polygon18361" />
			<polygon
   class="st2"
   points="-1717.47,-2800.75 -1717.47,-2797.09 -1718.08,-2797.09 -1718.71,-2797.09 -1718.71,-2800.76 -1722.17,-2806.28 -1721.46,-2806.28 -1720.73,-2806.28 -1718.08,-2801.82 -1715.44,-2806.28 -1714.72,-2806.28 -1714,-2806.28 "
   id="polygon18363" />
		</g>
	</g></g></svg>
