<?xml version="1.0" encoding="UTF-8" standalone="no"?>
<svg
   xmlns:dc="http://purl.org/dc/elements/1.1/"
   xmlns:cc="http://creativecommons.org/ns#"
   xmlns:rdf="http://www.w3.org/1999/02/22-rdf-syntax-ns#"
   xmlns:svg="http://www.w3.org/2000/svg"
   xmlns="http://www.w3.org/2000/svg"
   xmlns:sodipodi="http://sodipodi.sourceforge.net/DTD/sodipodi-0.dtd"
   xmlns:inkscape="http://www.inkscape.org/namespaces/inkscape"
   version="1.1"
   x="0px"
   y="0px"
   viewBox="0 0 358.79699 99.159999"
   xml:space="preserve"
   id="svg18962"
   sodipodi:docname="zju2.svg"
   inkscape:version="1.0.2 (e86c870879, 2021-01-15)"
   width="358.797"
   height="99.160004"><metadata
   id="metadata18968"><rdf:RDF><cc:Work
       rdf:about=""><dc:format>image/svg+xml</dc:format><dc:type
         rdf:resource="http://purl.org/dc/dcmitype/StillImage" /><dc:title></dc:title></cc:Work></rdf:RDF></metadata><defs
   id="defs18966">
	
	
	
	
	
	
	
	
	
	
	
	
	
	
	
	
	
	
	
	
	
	
	
	
	
	
	
	
		
	
		
	
	
		
	
		
	
		
	
		
	
	
	
	
	
	
	
	
	
	
	
	
	
	
	
	
	
	
	
	
	
	
	
	
	
	
	
	
	
	
	
	
	
	
	
	
	
	
	
	
	
	
	
	
	
	
	
	
	
	
	
	
	
	
	
	
	
	
	
	
	
	
	
	
	
	
	
	
	
	
	
	
	
	
	
	
	
	
	
	
	
	
	
	
	
	
	
	
	
	
	
	
	
	
	
	
	
	
	
	
	
	
	
	
	
	
	
	
	
	
	
	
	
	
	
	
	
	
	
	
	
	
	
	
	
	
	
	
	
	
	
	
	
	
	
	
	
	
	
	
	
	
	
	
	
	
	
	
	
	
	
	
	
	
	
	
	
	
	
	
	
	
	
	
	
	
	
	
	
	
	
	
	
	
	
	
	
	
	
	
	
	
	
	
	
	
	
	
	
	
	
	
	
	
	
	
	
	
	
	
	
	
	
	
	
	
	
	
	
	
	
	
	
	
	
	
	
	
	
	
	
	
	
	
	
	
	
	
	
	
	
	
	
	
	
	
	
	
	
	
	
	
	
	
	
	
	
	
	
	
	
	
	
	
	
	
	
	
	
	
	
	
	
	
	
	
	
	
	
	
	
	
	
	
	
	
	
	
	
	
	
	
	
	
	
	
	
	
	
	
	
	
	
	
	
	
	
	
	
	
	
	
	
	
	
	
	
	
	
	
	
	
	
	
	
	
	
	
	
	
	
	
	
	
	
	
	
	
	
	
	
	
	
	
	
	
	
</defs><sodipodi:namedview
   pagecolor="#ffffff"
   bordercolor="#666666"
   borderopacity="1"
   objecttolerance="10"
   gridtolerance="10"
   guidetolerance="10"
   inkscape:pageopacity="0"
   inkscape:pageshadow="2"
   inkscape:window-width="2560"
   inkscape:window-height="1403"
   id="namedview18964"
   showgrid="false"
   inkscape:zoom="0.78335648"
   inkscape:cx="-44.036453"
   inkscape:cy="301.60557"
   inkscape:window-x="0"
   inkscape:window-y="0"
   inkscape:window-maximized="1"
   inkscape:current-layer="svg18962"
   inkscape:document-rotation="0" />
<style
   type="text/css"
   id="style2">
	.st0{fill:#FFFFFF;}
	.st1{fill:#DDDEDE;}
	.st2{fill:#003F89;}
	.st3{fill:none;stroke:#FFFFFF;stroke-miterlimit:10;}
	.st4{fill:none;stroke:#FFFFFF;stroke-width:0.5;stroke-miterlimit:10;}
	.st5{fill:none;stroke:#FFFFFF;stroke-width:0.2004;stroke-miterlimit:10;}
	.st6{fill:#595857;}
	.st7{fill:none;stroke:#C9CACA;stroke-width:0.5;stroke-miterlimit:10;}
	.st8{fill-rule:evenodd;clip-rule:evenodd;fill:#003F89;}
	.st9{fill:none;stroke:#E4007F;stroke-width:0.5;stroke-miterlimit:10;}
	.st10{fill:none;stroke:#E4007F;stroke-width:0.5;stroke-miterlimit:10;stroke-dasharray:1.5927,1.5927;}
	.st11{fill:none;stroke:#E4007F;stroke-width:0.5;stroke-miterlimit:10;stroke-dasharray:1.988,1.988;}
	.st12{fill:none;stroke:#E4007F;stroke-width:0.5;stroke-miterlimit:10;stroke-dasharray:1.5928,1.5928;}
	.st13{fill:#E4007F;}
	.st14{fill:none;stroke:#E4007F;stroke-width:0.5;stroke-miterlimit:10;stroke-dasharray:2,2;}
	.st15{fill:#B02025;}
	.st16{fill-rule:evenodd;clip-rule:evenodd;fill:#B02025;}
	.st17{fill:#FFFFFF;stroke:#000000;stroke-width:0.2835;stroke-miterlimit:10;}
	.st18{fill-rule:evenodd;clip-rule:evenodd;fill:#FFFFFF;}
	.st19{fill-rule:evenodd;clip-rule:evenodd;}
	.st20{fill:#B2B2B3;}
	.st21{clip-path:url(#XMLID_00000124859071278452239810000007972457623544496520_);fill:none;stroke:#B2B2B3;stroke-width:0.4652;}
	.st22{clip-path:url(#XMLID_00000022521252532237387550000006304300902153060770_);fill:none;stroke:#B2B2B3;stroke-width:0.4652;}
	.st23{clip-path:url(#XMLID_00000045607340759975488880000016061449790461789073_);fill:none;stroke:#B2B2B3;stroke-width:0.4652;}
	.st24{fill:none;stroke:#B2B2B3;stroke-width:0.2889;}
	.st25{fill:none;stroke:#E4007F;stroke-width:0.5;}
	.st26{clip-path:url(#XMLID_00000124845341951549191850000002001509021997736093_);fill:none;stroke:#B2B2B3;stroke-width:0.303;}
	.st27{clip-path:url(#XMLID_00000043426689549231852110000010385240072871093661_);fill:none;stroke:#B2B2B3;stroke-width:0.303;}
	.st28{clip-path:url(#XMLID_00000162343759901595977690000005994101244011084421_);fill:none;stroke:#B2B2B3;stroke-width:0.303;}
	.st29{fill:none;stroke:#B2B2B3;stroke-width:0.1882;}
	.st30{opacity:0.7;fill:#FFFFFF;}
	.st31{fill:none;stroke:#B02025;stroke-miterlimit:10;}
	.st32{fill:#EFEFEF;}
	.st33{clip-path:url(#SVGID_00000039822183673782394030000006693573546692312731_);}
	.st34{fill:#CD151D;}
	.st35{fill:#727171;}
	.st36{fill-rule:evenodd;clip-rule:evenodd;fill:none;stroke:#727171;stroke-width:0.4855;stroke-miterlimit:10;}
	.st37{fill-rule:evenodd;clip-rule:evenodd;fill:none;stroke:#B02025;stroke-width:0.4753;stroke-miterlimit:10;}
	.st38{fill:none;stroke:#B02025;stroke-width:0.4753;stroke-miterlimit:10;}
	.st39{fill:none;stroke:#E4007F;stroke-width:0.5;stroke-miterlimit:10;stroke-dasharray:1.9891,1.9891;}
	.st40{fill:none;stroke:#E4007F;stroke-width:0.5;stroke-miterlimit:10;stroke-dasharray:2.0045,2.0045;}
	.st41{fill:none;stroke:#E4007F;stroke-width:0.5;stroke-miterlimit:10;stroke-dasharray:1.9933,1.9933;}
	.st42{fill:none;stroke:#E4007F;stroke-width:0.5;stroke-miterlimit:10;stroke-dasharray:1.9889,1.9889;}
	.st43{fill:none;stroke:#E4007F;stroke-width:0.5;stroke-miterlimit:10;stroke-dasharray:1.9903,1.9903;}
	.st44{fill:#FFFFFF;stroke:#000000;stroke-width:0.2176;stroke-miterlimit:10;}
	.st45{fill-rule:evenodd;clip-rule:evenodd;fill:none;stroke:#E4007F;stroke-width:0.5;stroke-miterlimit:10;}
	.st46{fill:none;stroke:#E4007F;stroke-width:0.5;stroke-miterlimit:10;stroke-dasharray:1.9912,1.9912;}
	.st47{fill:none;stroke:#E4007F;stroke-width:0.5;stroke-miterlimit:10;stroke-dasharray:2.0217,2.0217;}
	.st48{clip-path:url(#XMLID_00000013187068658361299290000012633922755137156789_);fill:none;stroke:#B2B2B3;stroke-width:0.2769;}
	.st49{clip-path:url(#XMLID_00000075845235336269191670000009758558369107771322_);fill:none;stroke:#B2B2B3;stroke-width:0.2769;}
	.st50{clip-path:url(#XMLID_00000041280951724302073460000002362311204658004148_);fill:none;stroke:#B2B2B3;stroke-width:0.2769;}
	.st51{fill:none;stroke:#B2B2B3;stroke-width:0.172;}
	.st52{fill:#FFFFFF;stroke:#000000;stroke-width:0.2532;stroke-miterlimit:10;}
</style>
<g
   id="画板的参考线">
</g>
<g
   id="g14526"
   transform="translate(1972.77,3632.89)">
		<g
   id="g14406">
			<path
   class="st8"
   d="m -1682.15,-3571.84 c -2.56,-0.55 -1.04,-1.36 -1.45,-3.55 -0.35,-1.89 -2.06,-3.74 -2.01,-5.14 0.15,-3.78 4.99,-3.54 7.92,-2.34 0.53,0.21 1.14,1.01 1.68,1.78 1.34,1.94 2.93,4.76 0.84,6.9 -1.8,1.84 -4.75,2.83 -6.98,2.35"
   id="path14382" />
			<path
   class="st8"
   d="m -1711.33,-3575.78 c -0.08,-0.04 -0.17,-0.07 -0.25,-0.1 0.02,-0.29 0.04,-0.57 0.06,-0.82 0.8,-0.3 7.78,-4.86 7.77,-5.05 2.03,-1.62 3.85,-3.42 4.43,-6.03 -5.01,1.64 -9.74,5.28 -14.92,5.67 -2.4,-0.6 -4.04,-1.9 -5.72,-2.63 -0.01,-0.12 -0.01,-0.21 -0.02,-0.28 -2.74,-1.79 -2.99,-4.09 0.03,-5.09 5.21,1.15 13.19,-2.57 18.1,-4.44 1.1,-0.49 4.27,-1.61 5.13,-2.62 1.15,-6.88 0.4,-13.78 0.81,-20.36 1.68,-4.76 4.65,-1.52 7.59,0.86 0.2,0.4 0.88,0.83 1.47,1.73 0.08,-0.01 0.16,-0.01 0.29,-0.02 1.25,1.98 1.6,2.89 -0.34,4.74 -1.31,3.23 -1.94,6.81 -1.78,10.55 3.58,-0.51 5.75,-3.64 9.9,-3.7 0.99,1.92 0.87,3.56 -0.96,5.16 -3.02,1.45 -6.3,2.75 -9.73,4.3 -0.8,3.48 -2.18,7.73 -4.62,10.55 -0.36,0.41 -2.13,2.06 -2.55,2.31 -2.22,1.29 -4.22,2.86 -6.65,3.55 -6.75,1.86 -6.83,1.55 -8.04,1.72"
   id="path14384" />
			<path
   class="st8"
   d="m -1775.6,-3564.05 c -2.48,-1.14 -4.72,-4.12 -6.06,-5.98 0.22,-0.66 0.45,-1.33 0.72,-1.95 5.83,-4.37 11.6,-8.42 16.88,-13.62 1.6,-2.46 3.69,-5.03 5.41,-7.46 0.07,-0.04 0.19,-0.09 0.3,-0.09 -0.01,-0.11 -0.01,-0.19 -0.02,-0.26 1.49,-1.17 2.12,-1.47 3.38,0.44 0.09,1.59 -2.77,3.3 -3.67,4.8 -1.12,2.85 -2.39,5.75 -3.84,8.66 -0.46,0.52 -0.46,0.52 -2.33,3.58 -1.56,1.21 -3.65,4.38 -4.53,6.3 -1.84,1.07 -2.63,4.32 -4.84,5.45 -0.5,0 -0.95,0.07 -1.4,0.13"
   id="path14386" />
			<path
   class="st8"
   d="m -1741.18,-3584.48 c -3.59,-0.16 -4.61,-2.46 -6.58,-4.54 -0.06,-0.95 0.52,-1.52 0.59,-2.17 0.9,-0.21 0.9,-0.21 1.45,-0.55 1.51,-0.21 2.05,-0.13 3.68,-0.23 2.07,-0.47 7.37,-4.11 9.15,-2.55 0.27,4.37 -4.48,8.78 -8.29,10.04"
   id="path14388" />
			<path
   class="st8"
   d="m -1768.8,-3591.37 c -1.37,-1.21 -1.64,-6.76 -1.75,-8.5 1.03,-3.11 4.15,-3.23 6.75,-1.22 2.08,2.72 3.48,3.86 1.31,7.04 -2.46,2.14 -3.55,2.28 -6.31,2.68"
   id="path14390" />
			<path
   class="st8"
   d="m -1742.16,-3594.05 c -0.37,-1.69 1.96,-5.3 1.29,-6.18 -0.87,0.13 -1.76,0.46 -2.68,0.51 -2.16,-1.04 -4.54,-3.68 -3.67,-5.72 1.6,-1.82 0.98,-1.35 3.49,-1.51 2.38,-1.06 4.75,-2.09 7.16,-3.11 4.04,-0.75 5.89,1.46 6.14,5.41 -0.72,2.56 -2.42,4.57 -4.09,6.58 -2.14,1.16 -4.08,2.46 -6.02,3.73 -0.57,0.07 -1.1,0.17 -1.62,0.29"
   id="path14392" />
			<path
   class="st8"
   d="m -1764.23,-3605.48 c -0.85,-0.75 -0.49,-1.15 -0.05,-1.91 -0.1,-1.67 -1.1,-3.02 -1.2,-4.61 0.54,-2.93 -0.02,-4 2.41,-5.41 1.88,0.83 8.46,4.2 6.9,7.87 -1.8,2.3 -5.45,3.74 -8.06,4.06"
   id="path14394" />
			<path
   class="st8"
   d="m -1849.35,-3561.31 c -3.9,-1.5 -7.33,-9.24 -2.6,-11.15 0.12,-0.67 0.7,-1.37 1.27,-1.57 -0.01,-0.12 -0.01,-0.21 -0.02,-0.29 3.79,-3.67 6.29,-8.8 9.48,-12.85 0.82,-1.54 1.26,-3.02 3.02,-3.46 0.88,0.78 0.57,2.54 0.33,3.88 0.39,0.35 1.75,0.09 2.56,-0.16 2.63,-2.27 6.07,-4.27 8.7,-6.67 0.14,-1.17 0.27,-2.35 0.45,-3.47 -1.84,0.45 -7.88,1.86 -6.44,-1.54 2.26,-0.89 5.7,-2.84 6.92,-5.28 0.59,-2.48 0.25,-5.23 1.51,-7.01 2.53,-1.32 5.54,1.89 6.05,4.63 1.02,1.8 4.2,-0.43 0.23,5.13 -0.83,0.62 -0.8,1.83 -0.63,3.1 0.29,0.02 0.58,0.04 0.87,0.07 2.22,-1.59 4.64,-3.31 7.16,-4.76 0.69,-3.56 1.25,-6.54 2.97,-9.55 2.46,-1.68 5.81,0.14 8.21,2.06 1.86,-0.12 3.01,-0.89 4.67,-2.12 0.65,-0.2 0.65,-0.2 1.9,-0.2 0.51,0.88 0.69,1.78 0.77,3.1 -1.18,3.63 -11.59,4.82 -9.59,9.05 1.82,-0.11 2.44,-2.1 3.11,-3.42 2.04,-1.08 6.43,0.22 8.56,1.79 2.37,2.88 0.53,3.86 -2.09,5.68 -0.26,0.39 -0.53,0.78 -0.76,1.16 -0.18,5.81 -0.18,5.81 -0.1,13.68 -0.9,2.13 -1.54,3.16 -3.18,4.88 0.01,0.08 0.01,0.16 0.02,0.25 -0.13,0.01 -0.21,0.01 -0.29,0.02 -1.01,1.76 -3.47,3.49 -4.94,1.84 -0.03,-6.46 0.34,-13.15 0.12,-19.31 -0.12,0.01 -0.24,0.05 -0.32,0.1 -0.47,3.14 -3.62,9.05 -6.32,10.99 -2.48,0.15 -4.56,-1.29 -5.27,-3.4 0.25,-0.64 0.74,-0.79 1.25,-1.24 1.4,-2.86 0.99,-8.14 0.98,-10.96 -2.01,0.29 -5.42,4.85 -6.92,6.56 -1.03,0.81 -2.06,1.62 -3.04,2.43 -0.72,2.4 -1.28,4.76 -1.91,7.32 -0.55,1.15 -1.1,2.35 -1.64,3.54 -0.13,0.01 -0.21,0.01 -0.29,0.02 -0.94,1.59 -3.99,5.76 -5.81,3.14 -0.02,-0.37 -0.04,-0.7 -0.02,-1.04 1.52,-2.25 2.69,-5.39 2.73,-7.96 -2.48,0.82 -4.11,3.07 -6.59,3.23 -1.42,-0.29 -2.86,-0.73 -3.8,-1.21 -0.01,-0.13 -0.01,-0.21 -0.02,-0.29 -0.61,-0.38 -1.22,-0.92 -1.58,-0.77 -0.45,1.39 -0.9,2.83 -1.31,4.27 -2.56,5.34 -4.43,10.59 -6.1,16.45 -0.96,0.93 -1.28,1.08 -2.26,1.31"
   id="path14396" />
			<path
   class="st8"
   d="m -1844.47,-3592.06 c -0.77,-1.11 0.17,-2.58 0.21,-3.87 -1.22,-3.65 -2.18,-6.37 0.15,-9.46 0.37,-0.06 0.74,-0.09 1.11,-0.11 1.69,1.18 4.1,3.89 5.54,5.83 1.78,4.37 -3.86,6.33 -7.01,7.61"
   id="path14398" />
			<path
   class="st8"
   d="m -1840.96,-3606.2 c -0.93,-0.31 -0.9,-0.52 -1.09,-0.84 0.44,-0.9 0.87,-1.42 0.68,-2.32 -2.24,-3.42 -2.11,-8.65 1.76,-10.38 1.13,0.14 1.15,1.09 1.65,2.63 2.52,2.45 7.2,5.48 2.76,8.79 -1.87,0.82 -3.89,1.46 -5.76,2.12"
   id="path14400" />
			<path
   class="st8"
   d="m -1654.31,-3592.8 c -3.5,-1.09 -2.84,-6.84 -2.25,-9.16 2.56,-1.62 5.91,1.76 6.1,4.76 -0.66,3.3 -0.62,3.79 -3.85,4.4"
   id="path14402" />
			<path
   class="st8"
   d="m -1635.38,-3566.28 c -0.13,-0.08 -0.22,-0.15 -0.3,-0.19 -4.48,0.28 -8.75,-0.15 -12.76,-1.57 -0.18,-0.35 -0.18,-0.35 -0.22,-0.89 2.36,-1.37 5.69,-1 7.5,-3.48 0.28,-1.94 0.51,-3.58 0.32,-5.24 -4.44,0.27 -6.81,3.41 -10.33,4.68 -3.01,0.19 -8.36,-2.54 -9.25,-4.93 0,-3.88 0.8,-2.13 4.95,-2.39 4.93,-0.88 9.86,-3.71 14.63,-5.8 1.01,-0.76 1.01,-0.76 1.57,-1 1.06,-3.21 1.8,-3.78 5.16,-4.44 1.3,-0.65 1.3,-0.65 5.12,-2.97 0.1,-0.37 0.2,-0.75 0.34,-1.12 -5.8,0.69 -10.49,5.38 -15.12,8.49 -2.29,0.63 -4.03,0.25 -5.62,-0.47 -1.02,0.14 -6.79,1.16 -4,-1.14 1.72,-0.67 3.03,-1.9 4.86,-2.71 4.35,-2.93 9.38,-5.44 14.08,-8.14 -0.05,-0.73 -0.32,-1.12 -0.45,-1.32 0.02,-0.98 0.2,-1.48 0.48,-2.23 -0.88,0.3 -1.13,0.24 -1.29,0.9 -2.78,1.23 -3.97,3.75 -6.31,1.08 -0.63,2.44 -2.36,4.14 -4.8,4.3 -2.49,-1.27 -2.55,-5.43 -2.99,-7.36 -0.18,-0.23 -0.52,-1.84 -1.21,-3.72 -1.13,-2.29 -3.2,-4.85 -1.82,-6.94 1.77,-1.09 2.48,-1.5 3.97,0.9 1.29,0.98 2.92,2.31 4.21,4.02 0.08,-0.01 0.17,-0.01 0.29,-0.02 0.79,2.12 2.72,4.89 2.52,7.59 1.3,-0.77 3.17,-2.27 2.21,-3.93 -2.16,-1.17 -0.93,-3.16 0.58,-3.91 1.06,0.06 1.06,0.06 2.44,-0.07 -0.03,-0.52 -0.07,-0.52 -0.34,-0.84 -1.79,-0.62 -1.45,-1.05 -0.97,-2.51 -2.09,-0.77 -2.88,-2.96 -2.08,-4.52 6.07,-1.52 6.07,-1.52 8.92,-2.43 1.89,-2.36 3.94,-8.81 7.61,-7.61 1.14,1.36 1.94,3.63 1.72,5.89 -0.47,0.97 -1.12,1.79 -1.29,2.85 0.36,-0.02 0.73,-0.01 1.1,0.01 2.54,-1.26 3.71,-2.76 5.21,1.02 2.45,1.32 3.33,0.98 2.41,4.54 -1.78,3.58 -3.71,7.41 -5.69,11 -0.03,0.17 -0.06,0.33 -0.05,0.49 0.45,0.1 0.91,0.19 1.37,0.33 0.26,1.62 0.31,3.61 0.26,5.57 -1.53,2.26 -3.46,2.25 -5.89,2.57 -3.09,1.54 -5.87,2.81 -8.78,4.54 -0.01,0.57 -0.09,1.15 0.2,1.9 1.47,-0.05 2.98,-0.06 4.49,-0.07 1.66,1.08 1.52,4.11 0.49,5.88 -1.7,0.23 -2.71,0.45 -4.01,1.15 -0.16,0.82 -0.31,1.65 -0.46,2.52 0.12,3.22 1.79,10.99 -2.98,11.74 m 9.49,-39.67 c 1.5,-1.53 2.55,-3.01 2.42,-5.09 -1.25,-1.1 -3.43,-1.25 -4.73,-1.17 -0.17,0.58 -0.17,0.58 -1.67,3.37 0.13,0.08 0.3,0.14 0.47,0.21 -0.16,0.05 -0.32,0.1 -0.44,0.19 0.01,0.08 0.05,0.16 0.1,0.28 0.66,0.09 1.04,-0.43 1.33,-0.9 2.35,-0.39 2.4,0.46 2.23,2.96 0.08,0.04 0.17,0.08 0.29,0.15"
   id="path14404" />
		</g>
		<g
   id="g14444">
			<polygon
   class="st2"
   points="-1842.5,-3546.43 -1835.63,-3554.91 -1841.96,-3554.91 -1841.96,-3555.58 -1841.96,-3556.25 -1833.74,-3556.25 -1833.74,-3555.59 -1833.74,-3554.94 -1840.61,-3546.45 -1833.75,-3546.45 -1833.75,-3545.78 -1833.75,-3545.11 -1842.5,-3545.11 -1842.5,-3545.77 "
   id="polygon14408" />
			<polygon
   class="st2"
   points="-1828.82,-3550.35 -1828.82,-3545.11 -1829.57,-3545.11 -1830.32,-3545.11 -1830.32,-3556.25 -1829.57,-3556.25 -1828.82,-3556.25 -1828.82,-3551.68 -1823.01,-3551.68 -1823.01,-3556.25 -1822.26,-3556.25 -1821.5,-3556.25 -1821.5,-3545.11 -1822.25,-3545.11 -1823.01,-3545.11 -1823.01,-3550.35 "
   id="polygon14410" />
			<polygon
   class="st2"
   points="-1809.21,-3545.78 -1809.21,-3545.11 -1817.44,-3545.11 -1817.44,-3556.25 -1809.3,-3556.25 -1809.3,-3555.58 -1809.3,-3554.91 -1815.93,-3554.91 -1815.93,-3551.51 -1809.87,-3551.51 -1809.87,-3550.84 -1809.87,-3550.18 -1815.93,-3550.18 -1815.93,-3546.45 -1809.21,-3546.45 "
   id="polygon14412" />
			<path
   class="st2"
   d="m -1801.43,-3556.25 h 0.75 0.76 v 8.01 c 0,1.09 -0.28,1.94 -0.83,2.53 -0.55,0.6 -1.33,0.89 -2.35,0.89 -1.04,0 -1.85,-0.28 -2.41,-0.83 -0.56,-0.55 -0.82,-1.32 -0.78,-2.3 v -0.77 h 1.41 v 0.77 c 0,0.59 0.14,1.05 0.44,1.36 0.29,0.33 0.71,0.48 1.25,0.48 0.55,0 0.98,-0.2 1.3,-0.58 0.32,-0.39 0.47,-0.91 0.47,-1.57 v -7.99 z"
   id="path14414" />
			<polygon
   class="st2"
   points="-1795.1,-3545.11 -1795.85,-3545.11 -1795.85,-3556.25 -1795.1,-3556.25 -1794.35,-3556.25 -1794.35,-3545.11 "
   id="polygon14416" />
			<path
   class="st2"
   d="m -1786.98,-3556.25 h 0.85 0.87 l 4,11.13 h -0.81 -0.81 l -1.13,-3.23 h -4.45 l -1.17,3.23 h -0.77 -0.78 z m -1,6.58 h 3.5 l -1.72,-4.94 h 0.01 z"
   id="path14418" />
			<polygon
   class="st2"
   points="-1776.88,-3545.11 -1777.6,-3545.11 -1778.33,-3545.11 -1778.33,-3556.25 -1777.43,-3556.25 -1776.52,-3556.25 -1770.95,-3547.2 -1770.95,-3556.25 -1770.22,-3556.25 -1769.5,-3556.25 -1769.5,-3545.11 -1770.32,-3545.11 -1771.14,-3545.11 -1776.88,-3554.2 "
   id="polygon14420" />
			<path
   class="st2"
   d="m -1760.22,-3544.81 c -1.55,0 -2.79,-0.53 -3.75,-1.61 -0.95,-1.08 -1.43,-2.49 -1.43,-4.24 0,-1.76 0.49,-3.18 1.46,-4.26 0.97,-1.08 2.24,-1.62 3.82,-1.62 1.22,0 2.27,0.34 3.14,1.02 0.88,0.68 1.39,1.55 1.54,2.62 h -1.45 c -0.14,-0.73 -0.5,-1.31 -1.07,-1.71 -0.58,-0.4 -1.33,-0.6 -2.24,-0.6 -1.09,0 -1.96,0.42 -2.63,1.26 -0.67,0.84 -1.01,1.94 -1.01,3.3 0,1.45 0.33,2.57 0.98,3.37 0.65,0.79 1.56,1.19 2.74,1.19 1.15,0 2.07,-0.42 2.78,-1.26 0.11,-0.13 0.22,-0.27 0.31,-0.42 0.12,-0.2 0.22,-0.47 0.31,-0.82 0.08,-0.35 0.12,-0.69 0.12,-1.01 v -0.14 h -3.49 v -1.27 h 4.87 v 5.89 h -0.94 l -0.36,-1.4 -0.08,0.1 c -0.93,1.07 -2.13,1.61 -3.62,1.61"
   id="path14422" />
			<path
   class="st2"
   d="m -1736.07,-3549.2 c 0,1.38 -0.39,2.45 -1.15,3.22 -0.78,0.77 -1.85,1.16 -3.22,1.16 -1.43,0 -2.52,-0.37 -3.27,-1.11 -0.74,-0.75 -1.12,-1.84 -1.12,-3.27 v -7.05 h 0.75 0.76 v 6.94 c 0,1.03 0.25,1.82 0.74,2.36 0.49,0.54 1.2,0.8 2.14,0.8 0.94,0 1.65,-0.27 2.14,-0.8 0.48,-0.54 0.73,-1.32 0.73,-2.36 v -6.94 h 0.75 0.75 z"
   id="path14424" />
			<polygon
   class="st2"
   points="-1730.36,-3545.11 -1731.08,-3545.11 -1731.81,-3545.11 -1731.81,-3556.25 -1730.91,-3556.25 -1730,-3556.25 -1724.43,-3547.2 -1724.43,-3556.25 -1723.7,-3556.25 -1722.97,-3556.25 -1722.97,-3545.11 -1723.8,-3545.11 -1724.63,-3545.11 -1730.36,-3554.2 "
   id="polygon14426" />
			<polygon
   class="st2"
   points="-1718.08,-3545.11 -1718.83,-3545.11 -1718.83,-3556.25 -1718.09,-3556.25 -1717.33,-3556.25 -1717.33,-3545.11 "
   id="polygon14428" />
			<polygon
   class="st2"
   points="-1705.5,-3556.25 -1704.66,-3556.25 -1708.71,-3545.11 -1709.53,-3545.11 -1710.33,-3545.11 -1714.38,-3556.25 -1713.55,-3556.25 -1712.71,-3556.25 -1709.52,-3546.73 -1709.51,-3546.73 -1706.33,-3556.25 "
   id="polygon14430" />
			<polygon
   class="st2"
   points="-1693.55,-3545.78 -1693.55,-3545.11 -1701.78,-3545.11 -1701.78,-3556.25 -1693.64,-3556.25 -1693.64,-3555.58 -1693.64,-3554.91 -1700.27,-3554.91 -1700.27,-3551.51 -1694.22,-3551.51 -1694.22,-3550.84 -1694.22,-3550.18 -1700.27,-3550.18 -1700.27,-3546.45 -1693.55,-3546.45 "
   id="polygon14432" />
			<path
   class="st2"
   d="m -1689.54,-3556.25 h 0.75 4.43 c 1.18,0 2.08,0.26 2.7,0.77 0.62,0.51 0.93,1.26 0.93,2.25 0,0.97 -0.33,1.74 -0.96,2.29 -0.16,0.14 -0.34,0.26 -0.52,0.37 l 0.25,0.12 c 0.67,0.39 1.03,1.04 1.05,1.97 l 0.06,2.02 c 0.01,0.34 0.05,0.58 0.13,0.72 0.08,0.15 0.22,0.27 0.44,0.38 v 0.24 h -1.85 c -0.04,-0.08 -0.08,-0.33 -0.12,-0.71 -0.04,-0.38 -0.08,-0.81 -0.09,-1.28 l -0.04,-0.88 c -0.02,-0.69 -0.19,-1.18 -0.51,-1.48 -0.32,-0.3 -0.84,-0.44 -1.56,-0.44 h -3.57 v 4.8 h -0.74 -0.76 v -11.14 z m 1.5,5.03 h 3.73 c 0.7,0 1.21,-0.16 1.53,-0.46 0.32,-0.3 0.48,-0.79 0.48,-1.45 0,-0.64 -0.17,-1.11 -0.51,-1.4 -0.34,-0.3 -0.88,-0.45 -1.62,-0.45 h -3.61 z"
   id="path14434" />
			<path
   class="st2"
   d="m -1669.88,-3553.02 c -0.07,-0.7 -0.34,-1.24 -0.83,-1.63 -0.49,-0.38 -1.14,-0.57 -1.96,-0.57 -0.85,0 -1.49,0.17 -1.93,0.49 -0.44,0.33 -0.66,0.81 -0.66,1.44 0,0.43 0.15,0.75 0.44,0.96 0.3,0.21 0.88,0.42 1.77,0.63 l 1.94,0.47 c 1.04,0.24 1.78,0.61 2.22,1.09 0.45,0.48 0.67,1.16 0.67,2.04 0,1.01 -0.38,1.81 -1.15,2.4 -0.76,0.59 -1.8,0.88 -3.11,0.88 -1.45,0 -2.59,-0.34 -3.41,-1.02 -0.8,-0.68 -1.2,-1.59 -1.2,-2.76 v -0.08 h 1.39 c 0.02,0.81 0.32,1.43 0.88,1.87 0.56,0.44 1.34,0.66 2.34,0.66 0.92,0 1.63,-0.16 2.11,-0.47 0.48,-0.32 0.72,-0.79 0.72,-1.4 0,-0.53 -0.16,-0.93 -0.47,-1.18 -0.31,-0.25 -0.94,-0.49 -1.89,-0.72 l -1.94,-0.46 c -0.98,-0.23 -1.68,-0.55 -2.1,-0.97 -0.42,-0.42 -0.62,-0.99 -0.62,-1.72 0,-1.07 0.36,-1.91 1.08,-2.53 0.73,-0.63 1.71,-0.93 2.94,-0.93 1.25,0 2.25,0.31 2.99,0.94 0.74,0.63 1.13,1.49 1.19,2.59 h -1.41 z"
   id="path14436" />
			<polygon
   class="st2"
   points="-1663.79,-3545.11 -1664.55,-3545.11 -1664.55,-3556.25 -1663.8,-3556.25 -1663.04,-3556.25 -1663.04,-3545.11 "
   id="polygon14438" />
			<polygon
   class="st2"
   points="-1650.85,-3554.91 -1654.6,-3554.91 -1654.6,-3545.11 -1655.35,-3545.11 -1656.11,-3545.11 -1656.11,-3554.91 -1659.87,-3554.91 -1659.87,-3555.58 -1659.87,-3556.25 -1650.85,-3556.25 -1650.85,-3555.58 "
   id="polygon14440" />
			<polygon
   class="st2"
   points="-1646.48,-3556.25 -1643.28,-3550.84 -1640.08,-3556.25 -1639.2,-3556.25 -1638.33,-3556.25 -1642.53,-3549.55 -1642.53,-3545.11 -1643.28,-3545.11 -1644.03,-3545.11 -1644.03,-3549.56 -1648.23,-3556.25 -1647.36,-3556.25 "
   id="polygon14442" />
		</g>
		<g
   id="g14524">
			<path
   class="st2"
   d="m -1923.19,-3632.89 c 27.31,0 49.58,22.27 49.58,49.58 0,27.31 -22.27,49.58 -49.58,49.58 -27.31,0 -49.58,-22.28 -49.58,-49.58 0,-27.31 22.27,-49.58 49.58,-49.58 m 0,1.98 c -26.22,0 -47.6,21.38 -47.6,47.6 0,26.22 21.39,47.61 47.6,47.61 26.22,0 47.6,-21.39 47.6,-47.61 0,-26.22 -21.38,-47.6 -47.6,-47.6"
   id="path14446" />
			<path
   class="st2"
   d="m -1940.61,-3562.18 c -3.1,-2.57 -5.64,-5.8 -7.38,-9.48 -1.68,-3.54 -2.61,-7.49 -2.61,-11.66 0,-15.09 12.31,-27.4 27.4,-27.4 15.09,0 27.41,12.31 27.41,27.4 0,4.17 -0.94,8.11 -2.61,11.66 -1.74,3.68 -4.27,6.91 -7.38,9.48 l -0.63,-0.76 c 2.99,-2.47 5.44,-5.59 7.12,-9.14 1.61,-3.41 2.51,-7.22 2.51,-11.23 0,-14.55 -11.87,-26.42 -26.42,-26.42 -14.55,0 -26.41,11.87 -26.41,26.42 0,4.01 0.9,7.82 2.51,11.23 1.68,3.54 4.12,6.66 7.12,9.14 z"
   id="path14448" />
			<polygon
   class="st8"
   points="-1966.1,-3571.05 -1964.63,-3567.11 -1965.65,-3566.76 -1967.52,-3571.77 -1966.5,-3572.13 -1957.93,-3570.82 -1959.24,-3574.34 -1958.22,-3574.7 -1956.51,-3570.1 -1957.53,-3569.75 "
   id="polygon14450" />
			<polygon
   class="st8"
   points="-1964.18,-3563.41 -1964.7,-3564.41 -1956.08,-3568.84 -1955.57,-3567.84 -1959.2,-3565.97 -1957.92,-3563.48 -1954.29,-3565.35 -1953.77,-3564.35 -1962.39,-3559.92 -1962.9,-3560.92 -1958.87,-3562.99 -1960.15,-3565.48 "
   id="polygon14452" />
			<polygon
   class="st8"
   points="-1951.27,-3559.13 -1953.49,-3562.23 -1956,-3560.67 -1953.95,-3557.82 -1954.85,-3557.27 -1956.89,-3560.12 -1959.78,-3558.33 -1957.4,-3555.02 -1958.3,-3554.46 -1961.36,-3558.73 -1953.29,-3563.75 -1950.37,-3559.69 "
   id="polygon14454" />
			<polygon
   class="st8"
   points="-1951.43,-3547.74 -1952.46,-3548.6 -1946.51,-3555.91 -1945.49,-3555.05 "
   id="polygon14456" />
			<path
   class="st8"
   d="m -1946.83,-3544.52 1.22,-2.59 -1.48,-1.07 -2.2,2.14 -1.01,-0.78 6.98,-6.89 1.4,0.85 -3.71,9.01 z m 1.78,-3.86 1.45,-3.34 -0.13,-0.11 -2.51,2.56 z"
   id="path14458" />
			<polygon
   class="st8"
   points="-1936.55,-3550.39 -1935.5,-3549.95 -1939.84,-3541.14 -1941.1,-3541.73 -1940.36,-3548.45 -1943.12,-3542.8 -1944.37,-3543.38 -1940,-3552.03 -1938.87,-3551.5 -1939.4,-3545.12 "
   id="polygon14460" />
			<path
   class="st8"
   d="m -1933.33,-3539.2 -0.81,-0.27 0.07,-0.76 c -0.19,0.17 -0.44,0.27 -0.75,0.31 -0.31,0.05 -0.63,0.02 -0.95,-0.08 -0.67,-0.22 -1.17,-0.74 -1.49,-1.58 -0.33,-0.83 -0.26,-1.99 0.19,-3.45 0.49,-1.6 1.1,-2.71 1.82,-3.34 0.72,-0.62 1.81,-0.97 2.78,-0.66 1.04,0.33 1.71,1.61 1.42,3.39 l -1.24,-0.1 c 0.21,-0.76 0.1,-1.94 -0.64,-2.18 -0.6,-0.2 -1.27,-0.01 -1.7,0.47 -0.43,0.48 -0.84,1.38 -1.25,2.71 -0.39,1.26 -0.5,2.18 -0.33,2.76 0.17,0.58 0.47,0.94 0.88,1.07 0.41,0.13 0.79,0.08 1.13,-0.17 0.34,-0.24 0.61,-0.71 0.82,-1.39 l 0.18,-0.56 -1.49,-0.48 0.3,-0.97 2.44,0.79 z"
   id="path14462" />
			<path
   class="st8"
   d="m -1920.44,-3541.34 c -0.03,0.87 -0.26,1.56 -0.7,2.05 -0.44,0.49 -1.11,0.72 -2.02,0.69 -0.91,-0.03 -1.57,-0.31 -1.97,-0.84 -0.4,-0.53 -0.59,-1.22 -0.56,-2.1 l 0.22,-6.6 1.16,0.05 -0.22,6.6 c -0.02,0.62 0.1,1.08 0.36,1.38 0.26,0.3 0.61,0.46 1.05,0.48 0.44,0.02 0.8,-0.12 1.08,-0.4 0.28,-0.28 0.43,-0.73 0.45,-1.35 l 0.22,-6.6 1.16,0.04 z"
   id="path14464" />
			<polygon
   class="st8"
   points="-1915.98,-3548.73 -1914.95,-3548.9 -1913.83,-3539.58 -1914.86,-3539.41 -1918.13,-3545.72 -1917.64,-3538.95 -1918.87,-3538.78 -1919.59,-3548.26 -1918.17,-3548.39 -1915.47,-3543.97 "
   id="polygon14466" />
			<polygon
   class="st8"
   points="-1910.29,-3540.57 -1911.5,-3540.2 -1914.03,-3549.17 -1912.81,-3549.55 "
   id="polygon14468" />
			<polygon
   class="st8"
   points="-1907,-3551.94 -1905.47,-3542.03 -1906.67,-3541.44 -1911.92,-3549.85 -1910.76,-3550.34 -1907.11,-3544.6 -1908.12,-3551.46 "
   id="polygon14470" />
			<polygon
   class="st8"
   points="-1901.76,-3553.57 -1904.98,-3551.83 -1903.48,-3549.26 -1900.52,-3550.86 -1899.99,-3549.94 -1902.94,-3548.34 -1901.22,-3545.39 -1897.79,-3547.25 -1897.25,-3546.32 -1901.68,-3543.93 -1906.51,-3552.21 -1902.3,-3554.49 "
   id="polygon14472" />
			<path
   class="st8"
   d="m -1892.21,-3549.87 -0.97,0.83 -3.43,-2.84 -0.89,0.8 2.32,3.16 -0.98,1.02 -5.68,-7.98 1.81,-1.3 c 0.58,-0.42 1.34,-0.71 2.03,-0.63 1.77,0.21 2.52,1.4 2.44,2.79 -0.03,0.44 -0.05,0.86 -0.22,1.3 z m -6.12,-5.61 c -0.72,-0.2 -1.29,0.36 -1.81,0.76 l 1.89,2.5 c 0.58,-0.42 0.85,-0.5 1.28,-1.26 0.19,-0.91 -0.21,-1.69 -1.36,-2"
   id="path14474" />
			<path
   class="st8"
   d="m -1889.14,-3557.57 c 1.98,1.2 1.52,4.57 -1.08,4.96 -0.7,0.11 -1.53,-0.11 -1.88,-0.33 l 0.44,-1.01 c 0.43,0.09 0.86,0.25 1.27,0.17 1.69,-0.32 1.61,-2.07 0.63,-2.8 -0.34,-0.26 -0.83,-0.29 -1.24,-0.24 -1.14,0.12 -1.87,0.97 -3.13,1.05 -1.38,0.08 -2.35,-0.76 -2.58,-2.11 -0.12,-0.71 0.05,-1.4 0.41,-1.96 0.73,-1.15 2.29,-1.3 3.42,-0.63 l -0.44,1.04 c -0.61,-0.32 -1.7,-0.32 -2.11,0.32 -0.22,0.33 -0.29,0.68 -0.22,1.03 0.14,0.76 0.66,1.2 1.39,1.11 1.23,-0.15 2.06,-1.16 3.27,-1.12 0.58,0.03 1.26,0.17 1.85,0.52"
   id="path14476" />
			<polygon
   class="st8"
   points="-1884.97,-3558.8 -1885.68,-3557.92 -1893.84,-3563.04 -1893.13,-3563.92 "
   id="polygon14478" />
			<polygon
   class="st8"
   points="-1890.51,-3566.49 -1891.41,-3564.81 -1892.38,-3565.38 -1890.05,-3569.69 -1889.09,-3569.13 -1889.99,-3567.45 -1882.28,-3562.92 -1882.8,-3561.95 "
   id="polygon14480" />
			<polygon
   class="st8"
   points="-1882.97,-3571.3 -1879.83,-3569.95 -1880.21,-3568.89 -1883.12,-3570.02 -1889.82,-3570.17 -1889.5,-3571.25 -1884.82,-3571.17 -1888.13,-3574.22 -1887.67,-3575.5 "
   id="polygon14482" />
			<path
   class="st8"
   d="m -1952.15,-3551.96 c -0.83,0.83 -1.61,1.26 -2.33,1.28 -0.72,0.02 -1.37,-0.26 -1.96,-0.86 -0.53,-0.54 -0.8,-1.18 -0.79,-1.9 0,-0.37 0.11,-0.75 0.32,-1.13 l 1.06,0.65 c -0.1,0.18 -0.14,0.35 -0.14,0.52 -0.01,0.39 0.11,0.72 0.36,0.98 0.36,0.36 0.73,0.53 1.13,0.5 0.39,-0.04 0.87,-0.33 1.44,-0.89 l 4.71,-4.66 0.88,0.89 z"
   id="path14484" />
			<path
   class="st8"
   d="m -1936.13,-3553.59 -3.3,-2.05 0.3,-0.52 1.23,0.76 1.96,-3.42 -1.23,-0.76 0.27,-0.46 c 0.47,0.29 0.83,0.45 1.11,0.48 0.28,0.04 0.51,-0.07 0.69,-0.33 l 0.71,0.44 -2.64,4.6 1.2,0.74 z m 9.84,-2.09 c 0.05,-0.26 -0.04,-0.5 -0.27,-0.71 -0.24,-0.21 -0.6,-0.35 -1.08,-0.42 -0.44,-0.06 -0.82,-0.03 -1.13,0.08 -0.31,0.12 -0.5,0.31 -0.55,0.58 -0.04,0.19 0,0.37 0.12,0.52 0.11,0.15 0.3,0.31 0.57,0.45 0.11,0.06 0.29,0.15 0.53,0.27 0.25,0.12 0.47,0.21 0.67,0.28 0.39,-0.13 0.66,-0.28 0.83,-0.44 0.16,-0.17 0.27,-0.37 0.31,-0.61 m -0.42,2.96 c 0.05,-0.24 0.02,-0.44 -0.1,-0.6 -0.12,-0.16 -0.37,-0.35 -0.76,-0.55 -0.13,-0.07 -0.3,-0.14 -0.52,-0.24 -0.22,-0.09 -0.46,-0.19 -0.73,-0.31 -0.37,0.1 -0.66,0.23 -0.88,0.43 -0.22,0.18 -0.36,0.41 -0.42,0.68 -0.07,0.36 0.04,0.67 0.32,0.94 0.28,0.28 0.67,0.45 1.17,0.52 0.51,0.07 0.94,0.03 1.29,-0.13 0.35,-0.15 0.56,-0.4 0.63,-0.74 m -2.05,1.45 c -0.45,-0.06 -0.85,-0.16 -1.2,-0.3 -0.35,-0.14 -0.64,-0.31 -0.87,-0.5 -0.22,-0.19 -0.38,-0.41 -0.47,-0.64 -0.08,-0.23 -0.1,-0.47 -0.06,-0.71 0.06,-0.31 0.26,-0.59 0.57,-0.82 0.31,-0.23 0.74,-0.39 1.27,-0.48 l 0.01,-0.02 c -0.41,-0.23 -0.7,-0.46 -0.88,-0.69 -0.17,-0.23 -0.23,-0.49 -0.17,-0.79 0.09,-0.44 0.42,-0.77 1,-1 0.57,-0.22 1.26,-0.28 2.05,-0.17 0.83,0.12 1.46,0.35 1.9,0.7 0.44,0.35 0.61,0.74 0.53,1.17 -0.05,0.27 -0.22,0.51 -0.52,0.73 -0.29,0.22 -0.67,0.37 -1.15,0.46 v 0.02 c 0.49,0.24 0.85,0.48 1.08,0.75 0.23,0.26 0.3,0.58 0.23,0.94 -0.1,0.5 -0.47,0.88 -1.1,1.14 -0.64,0.26 -1.38,0.33 -2.22,0.21 m 11.42,-3.62 c 0,-0.4 -0.05,-0.73 -0.17,-0.99 -0.12,-0.25 -0.27,-0.45 -0.46,-0.59 -0.17,-0.13 -0.35,-0.21 -0.53,-0.27 -0.18,-0.04 -0.38,-0.07 -0.59,-0.07 -0.49,0 -0.88,0.11 -1.17,0.35 -0.3,0.23 -0.44,0.57 -0.44,1.01 0,0.25 0.04,0.46 0.14,0.62 0.1,0.16 0.25,0.3 0.47,0.42 0.15,0.08 0.32,0.14 0.51,0.17 0.19,0.03 0.4,0.04 0.61,0.04 0.26,0 0.53,-0.03 0.82,-0.09 0.3,-0.06 0.55,-0.14 0.77,-0.24 0,-0.04 0.01,-0.09 0.02,-0.16 0.02,-0.04 0.02,-0.12 0.02,-0.2 m -4.57,-0.51 c 0,-0.31 0.08,-0.59 0.22,-0.83 0.15,-0.25 0.36,-0.47 0.61,-0.66 0.25,-0.17 0.55,-0.31 0.9,-0.41 0.36,-0.1 0.72,-0.15 1.09,-0.15 0.41,0 0.78,0.05 1.11,0.14 0.33,0.09 0.62,0.23 0.87,0.4 0.31,0.22 0.54,0.5 0.71,0.85 0.17,0.35 0.25,0.8 0.25,1.34 0,0.49 -0.08,0.96 -0.25,1.4 -0.17,0.44 -0.41,0.81 -0.73,1.1 -0.34,0.31 -0.76,0.54 -1.24,0.7 -0.48,0.16 -1.07,0.24 -1.78,0.24 -0.16,0 -0.33,-0.01 -0.51,-0.02 -0.18,-0.02 -0.35,-0.04 -0.5,-0.07 v -0.77 h 0.06 c 0.1,0.04 0.25,0.08 0.47,0.11 0.21,0.03 0.43,0.05 0.64,0.05 0.78,0 1.4,-0.17 1.84,-0.52 0.44,-0.34 0.7,-0.83 0.76,-1.47 -0.32,0.14 -0.62,0.25 -0.91,0.32 -0.29,0.07 -0.6,0.1 -0.94,0.1 -0.33,0 -0.63,-0.02 -0.9,-0.07 -0.27,-0.05 -0.54,-0.14 -0.82,-0.28 -0.32,-0.16 -0.56,-0.37 -0.73,-0.61 -0.14,-0.24 -0.22,-0.54 -0.22,-0.89 m 12.94,-5.07 -0.22,6.12 -0.94,0.59 0.08,-5.78 -3.57,1.74 -0.31,-0.69 4.49,-2.33 z"
   id="path14486" />
			<g
   id="g14492">
				<path
   class="st8"
   d="m -1907.02,-3609.99 c -0.72,-0.35 -0.21,-0.47 -0.17,-1.15 0.03,-0.58 -0.34,-1.25 -0.22,-1.66 0.31,-1.1 1.73,-0.69 2.5,-0.12 0.14,0.1 0.26,0.37 0.37,0.65 0.25,0.67 0.52,1.61 -0.25,2.09 -0.66,0.42 -1.6,0.49 -2.23,0.19"
   id="path14488" />
				<path
   class="st8"
   d="m -1915.34,-3613.25 c -0.02,-0.02 -0.05,-0.03 -0.07,-0.05 0.03,-0.09 0.05,-0.17 0.08,-0.24 0.26,-0.03 2.64,-0.87 2.65,-0.93 0.72,-0.33 1.38,-0.73 1.74,-1.46 -1.59,0.12 -3.25,0.85 -4.81,0.6 -0.67,-0.35 -1.06,-0.85 -1.5,-1.19 0.01,-0.03 0.01,-0.06 0.01,-0.08 -0.68,-0.73 -0.58,-1.42 0.38,-1.5 1.45,0.72 4.07,0.19 5.66,0 0.36,-0.07 1.38,-0.17 1.71,-0.41 0.83,-1.94 1.11,-4.03 1.7,-5.95 0.84,-1.28 1.48,-0.12 2.18,0.8 0.03,0.13 0.2,0.31 0.31,0.62 0.02,0 0.05,0.01 0.08,0.02 0.23,0.67 0.26,0.96 -0.44,1.37 -0.62,0.86 -1.06,1.86 -1.28,2.98 1.09,0.11 1.96,-0.66 3.18,-0.38 0.15,0.64 0,1.11 -0.65,1.45 -1,0.21 -2.06,0.36 -3.18,0.57 -0.48,0.97 -1.2,2.12 -2.12,2.78 -0.14,0.1 -0.78,0.45 -0.92,0.5 -0.75,0.22 -1.45,0.54 -2.22,0.56 -2.12,0.08 -2.12,-0.02 -2.49,-0.06"
   id="path14490" />
			</g>
			<g
   id="g14504">
				<path
   class="st8"
   d="m -1939.49,-3606.18 c -0.88,-0.05 -1.91,-0.69 -2.53,-1.09 -0.01,-0.22 -0.03,-0.45 -0.02,-0.67 1.24,-2 2.5,-3.91 3.47,-6.1 0.19,-0.93 0.51,-1.96 0.74,-2.89 0.02,-0.02 0.04,-0.05 0.08,-0.07 -0.02,-0.03 -0.03,-0.05 -0.03,-0.08 0.31,-0.52 0.46,-0.69 1.07,-0.27 0.22,0.47 -0.44,1.32 -0.54,1.88 0,0.99 -0.04,2.02 -0.13,3.07 -0.08,0.21 -0.08,0.21 -0.28,1.35 -0.33,0.55 -0.58,1.76 -0.62,2.44 -0.43,0.54 -0.28,1.61 -0.81,2.21 -0.14,0.07 -0.27,0.14 -0.4,0.22"
   id="path14494" />
				<path
   class="st8"
   d="m -1931.55,-3616.42 c -1.1,0.38 -1.68,-0.19 -2.52,-0.59 -0.13,-0.28 -0.03,-0.52 -0.08,-0.72 0.25,-0.17 0.25,-0.17 0.37,-0.34 0.43,-0.24 0.6,-0.28 1.08,-0.5 0.56,-0.38 1.73,-2.11 2.45,-1.85 0.61,1.27 -0.31,3.16 -1.3,4"
   id="path14496" />
				<path
   class="st8"
   d="m -1940.69,-3615.23 c -0.55,-0.2 -1.29,-1.84 -1.53,-2.36 -0.06,-1.06 0.87,-1.46 1.89,-1.16 0.95,0.58 1.51,0.75 1.23,1.97 -0.49,0.93 -0.8,1.11 -1.59,1.55"
   id="path14498" />
				<path
   class="st8"
   d="m -1932.98,-3619.19 c -0.31,-0.46 -0.04,-1.83 -0.34,-2.01 -0.25,0.15 -0.48,0.35 -0.75,0.47 -0.78,-0.06 -1.8,-0.57 -1.78,-1.29 0.27,-0.73 0.14,-0.52 0.87,-0.87 0.59,-0.6 1.18,-1.19 1.79,-1.79 1.13,-0.7 1.95,-0.26 2.49,0.91 0.09,0.86 -0.19,1.66 -0.45,2.47 -0.51,0.6 -0.94,1.22 -1.37,1.84 -0.17,0.08 -0.32,0.17 -0.46,0.27"
   id="path14500" />
				<path
   class="st8"
   d="m -1940.98,-3620.02 c -0.34,-0.12 -0.28,-0.29 -0.24,-0.57 -0.23,-0.49 -0.69,-0.77 -0.91,-1.25 -0.19,-0.95 -0.48,-1.2 0.08,-1.91 0.67,0.02 3.05,0.26 3.01,1.56 -0.26,0.9 -1.19,1.76 -1.94,2.17"
   id="path14502" />
			</g>
			<path
   class="st8"
   d="m -1953.17,-3587.34 c -1.03,0.71 -3.5,0.24 -3.18,-1.24 -0.14,-0.14 -0.22,-0.4 -0.17,-0.57 -0.03,-0.02 -0.06,-0.03 -0.08,-0.04 -0.26,-1.55 -1.1,-3.03 -1.56,-4.49 -0.24,-0.46 -0.53,-0.82 -0.34,-1.32 0.34,-0.09 0.72,0.28 1.01,0.57 0.15,-0.03 0.32,-0.41 0.39,-0.65 -0.11,-1.03 -0.03,-2.21 -0.17,-3.26 -0.27,-0.23 -0.53,-0.46 -0.77,-0.7 -0.2,0.53 -0.88,2.25 -1.46,1.32 0.16,-0.71 0.26,-1.88 -0.13,-2.59 -0.51,-0.56 -1.24,-0.94 -1.47,-1.55 0.1,-0.85 1.4,-1.04 2.16,-0.71 0.61,0.05 0.6,-1.1 1.3,0.81 0.02,0.31 0.31,0.5 0.66,0.68 0.06,-0.07 0.11,-0.14 0.16,-0.21 -0.01,-0.81 -0.03,-1.7 0.04,-2.56 -0.76,-0.77 -1.4,-1.41 -1.85,-2.34 0,-0.89 1.01,-1.4 1.89,-1.67 0.28,-0.48 0.29,-0.89 0.27,-1.5 0.06,-0.19 0.06,-0.19 0.27,-0.5 0.3,0.02 0.55,0.13 0.89,0.33 0.69,0.9 -0.77,3.66 0.61,3.88 0.28,-0.47 -0.11,-0.95 -0.32,-1.34 0.08,-0.69 1.14,-1.54 1.88,-1.8 1.1,-0.1 1.03,0.52 1.04,1.47 0.05,0.13 0.1,0.26 0.16,0.38 1.4,1.02 1.4,1.02 3.34,2.33 0.37,0.58 0.51,0.91 0.66,1.6 0.02,0.01 0.04,0.02 0.06,0.04 -0.02,0.03 -0.03,0.05 -0.04,0.07 0.26,0.54 0.27,1.44 -0.38,1.52 -1.59,-1.08 -3.17,-2.3 -4.72,-3.29 -0.02,0.03 -0.03,0.07 -0.03,0.1 0.69,0.65 1.61,2.42 1.64,3.41 -0.38,0.64 -1.08,0.9 -1.72,0.72 -0.11,-0.17 -0.07,-0.32 -0.09,-0.52 -0.47,-0.83 -1.84,-1.62 -2.53,-2.09 -0.27,0.54 0.28,2.15 0.44,2.81 0.03,0.39 0.05,0.78 0.08,1.16 0.47,0.58 0.96,1.11 1.48,1.7 0.19,0.33 0.39,0.66 0.59,1 -0.02,0.03 -0.03,0.05 -0.04,0.07 0.23,0.5 0.74,1.95 -0.21,1.96 -0.09,-0.06 -0.18,-0.11 -0.26,-0.17 -0.3,-0.75 -0.87,-1.57 -1.49,-2.01 -0.22,0.74 0.06,1.53 -0.32,2.16 -0.31,0.3 -0.66,0.58 -0.94,0.73 -0.03,-0.02 -0.05,-0.03 -0.07,-0.04 -0.19,0.08 -0.43,0.14 -0.46,0.26 0.27,0.35 0.55,0.7 0.82,1.04 0.88,1.53 1.85,2.87 3.01,4.27 0.08,0.39 0.06,0.49 -0.05,0.77"
   id="path14506" />
			<path
   class="st8"
   d="m -1959.9,-3593.72 c -0.4,0 -0.6,-0.48 -0.91,-0.7 -1.1,-0.32 -1.93,-0.54 -2.29,-1.63 0.05,-0.1 0.1,-0.2 0.16,-0.29 0.58,-0.21 1.65,-0.34 2.36,-0.38 1.36,0.3 0.9,2.01 0.68,3"
   id="path14508" />
			<path
   class="st8"
   d="m -1962.78,-3596.96 c -0.23,0.17 -0.28,0.13 -0.39,0.12 -0.15,-0.26 -0.2,-0.45 -0.46,-0.56 -1.22,-0.03 -2.48,-0.94 -2.25,-2.18 0.22,-0.25 0.46,-0.1 0.93,0.04 1.03,-0.2 2.56,-0.84 2.62,0.8 -0.11,0.6 -0.3,1.21 -0.45,1.78"
   id="path14510" />
			<path
   class="st2"
   d="m -1899.91,-3595.4 -12.06,-0.01 c -3.52,0 -5.32,3.45 -6.65,6.57 l -2.03,-4.57 3.41,-1.26 c -2,-1.89 -8.22,-2.92 -9.04,-0.08 l -1.47,5.9 c -1.16,-2.66 -2.79,-6.55 -6.48,-6.55 h -12.23 c 1.59,2.81 3.11,3.82 8.74,3.58 l 0.74,1.94 -6.17,0.03 c 1.82,3.36 2.87,3.5 7.84,3.36 l 1.05,2.32 -4.85,0.17 c 1.04,2.37 2.14,3.39 6.3,3.2 l 0.81,2.06 -3.86,0.02 c 1.45,2.39 2.17,3.49 5.22,3.22 l 0.82,2.24 h -2.67 c 1.16,2.58 2.5,2.69 4.14,2.95 1.48,0.23 1.69,3 -0.03,3.88 l 5.19,8.42 5.19,-8.43 c -1.73,-0.89 -1.51,-3.65 -0.03,-3.88 1.65,-0.26 2.99,-0.36 4.14,-2.95 h -2.67 l 0.82,-2.24 c 3.06,0.27 3.77,-0.83 5.22,-3.22 l -3.86,-0.02 0.81,-2.06 c 4.17,0.19 5.26,-0.83 6.3,-3.2 l -4.85,-0.17 1.05,-2.32 c 4.97,0.14 6.02,0 7.84,-3.36 l -6.17,-0.03 0.74,-1.94 c 5.63,0.25 7.15,-0.76 8.75,-3.57"
   id="path14512" />
			<path
   class="st2"
   d="m -1881.55,-3601.17 0.04,-0.11 c 0.17,-0.43 0.16,-0.61 0.12,-0.69 -0.05,-0.1 -0.24,-0.16 -0.54,-0.23 -0.08,-0.02 -0.17,-0.04 -0.28,-0.05 l -0.17,-0.03 -0.05,-0.12 c -0.06,-0.06 -0.12,-0.13 -0.19,-0.18 l -0.23,-0.08 -0.05,-0.03 0.3,-0.23 c 0.21,-0.16 0.46,-0.24 0.72,-0.33 l 0.03,-0.07 0.12,0.05 c 0.43,-0.37 0.71,-0.91 0.75,-1.47 -0.13,-0.18 -0.35,-0.26 -0.68,-0.26 -0.42,0.01 -0.94,0.17 -1.4,0.31 -0.28,0.09 -0.63,0.2 -0.94,0.26 l -0.11,-0.05 c -0.77,-0.37 -0.8,-0.39 -2.41,-1.23 -0.12,0.08 -0.21,0.19 -0.26,0.32 -0.1,0.23 -0.08,0.49 0.04,0.74 l 0.15,0.12 0.01,0.01 v 0.01 l -0.38,0.2 c -0.09,0.05 -0.11,0.06 -0.1,0.06 v 0 l -0.11,0.1 c 0.01,0.04 0.04,0.12 0.09,0.22 l 0.03,0.17 c -0.01,0.15 -0.03,0.21 -0.16,0.35 l -0.05,0.18 -0.01,0.02 v 0 l -0.23,-0.19 c -0.31,-0.24 -0.34,-0.27 -0.56,-0.48 -0.06,-0.01 -0.12,-0.02 -0.19,-0.02 -0.17,0.01 -0.32,0.06 -0.38,0.15 -0.07,0.09 -0.06,0.22 0.01,0.39 l -0.02,0.09 c -0.05,0.23 -0.25,0.62 -0.96,0.63 l -0.37,-0.01 c -0.07,0 -0.14,0 -0.26,0.06 0,0.49 0.21,0.52 0.72,0.6 0.19,0.03 0.4,0.06 0.68,0.13 0.05,-0.02 0.09,-0.03 0.14,-0.03 0.11,0 0.19,0.04 0.3,0.09 l 0.38,0.15 0.14,0.04 0.06,0.03 -0.47,0.23 c -0.18,0.09 -0.3,0.15 -0.47,0.34 -0.03,0.13 -0.1,0.26 -0.21,0.39 l -0.02,0.11 -0.19,-0.04 c -0.34,-0.08 -0.69,-0.17 -1.04,-0.26 l -0.53,-0.14 c -0.95,-0.25 -2.12,-0.56 -3.23,-0.75 -0.26,-0.09 -0.52,-0.14 -0.77,-0.19 l -0.52,-0.06 -0.02,0.15 c 0.13,0.1 0.3,0.23 0.57,0.4 l 0.04,0.09 c 0.15,0.36 0.4,0.82 0.97,1.14 0.38,0.07 0.78,0.11 1.25,0.17 1.38,0.16 2.81,0.32 3.93,1.16 l 0.29,0.15 h 0.07 0.01 v 0 l -0.42,0.21 c -0.1,0.05 -0.2,0.11 -0.33,0.23 l -0.13,-0.03 c -1.33,-0.29 -1.33,-0.29 -1.81,-0.45 -0.48,-0.31 -0.71,-0.4 -0.97,-0.4 -0.19,0 -0.42,0.09 -0.8,0.31 -0.03,0.01 -0.04,0.02 -0.06,0.03 l -0.02,0.02 c -0.01,0.01 -0.02,0.01 -0.04,0.02 l -0.13,-0.05 c -0.15,-0.05 -0.15,-0.06 -0.55,-0.11 -0.37,-0.13 -0.75,-0.25 -1.16,-0.39 -1.15,-0.37 -2.34,-0.76 -3.32,-1.42 -0.29,-0.24 -0.48,-0.47 -0.65,-0.66 -0.05,-0.06 -0.09,-0.1 -0.12,-0.1 0,0 -0.01,0 -0.01,0 l -0.1,-0.12 c -0.08,0.02 -0.2,0.13 -0.4,0.35 -0.21,0.65 0.38,2.21 0.91,2.67 0.37,0.16 0.77,0.24 1.19,0.32 0.7,0.13 1.42,0.27 2.11,0.84 l 0.19,0.05 0.01,0.01 v 0 l -0.18,0.24 c -0.23,0.3 -0.49,0.54 -0.79,0.81 l -0.14,0.11 c -0.09,0.07 -0.18,0.14 -0.24,0.22 l -0.13,0.01 c -0.1,0.02 -0.19,0.03 -0.3,0.03 -0.51,0 -0.95,-0.25 -1.34,-0.46 -0.13,-0.07 -0.25,-0.14 -0.43,-0.18 l -0.07,0.13 c 0.53,0.92 1.27,1.76 2.24,2.57 l 0.08,0.13 c 0.12,0.06 0.24,0.09 0.36,0.09 h 0.02 c 0.7,-0.01 1.45,-0.97 2.01,-1.67 0.12,-0.15 0.23,-0.29 0.36,-0.43 l 0.14,-0.1 c 0.53,-0.39 0.56,-0.42 0.54,-0.42 l 0.13,0.04 c 0.44,0.12 0.73,0.29 1.15,0.53 0.41,-0.18 0.84,-0.6 0.8,-1.05 l -0.17,-0.16 c -0.25,-0.23 -0.5,-0.46 -0.75,-0.69 l -0.13,-0.03 0.09,-0.21 c 0.09,-0.22 0.23,-0.36 0.41,-0.54 l 0.02,-0.09 0.18,0.04 c 0.75,0.17 1.42,0.38 2.23,0.63 l 0.72,0.23 0.18,0.13 c 0.41,0.31 0.71,0.53 1.17,0.53 0.07,0 0.14,-0.01 0.26,-0.05 0.44,-0.45 0.69,-0.76 0.87,-1.11 v 0 c 0,-0.01 0.01,-0.02 0.02,-0.03 -0.14,-0.2 -0.2,-0.26 -0.22,-0.26 l 0.13,-0.15 c 0.04,-0.05 0.08,-0.09 0.21,-0.16 1.21,-0.38 2.53,-0.86 3.49,-1.21 0.58,-0.37 0.64,-0.4 0.43,-0.94 -0.03,-0.09 -0.07,-0.2 -0.14,-0.34 m -4.72,0.72 0.2,-0.18 c 0.27,-0.25 0.39,-0.37 0.42,-0.49 -0.01,-0.05 -0.07,-0.11 -0.19,-0.2 l -0.06,-0.01 c -0.04,0 -0.08,0.01 -0.13,0.01 -0.22,0 -0.35,-0.1 -0.42,-0.19 l -0.09,-0.07 0.01,-0.1 0.08,-0.25 -0.04,-0.02 0.26,-0.09 c 0.89,-0.29 0.89,-0.29 1.04,-0.38 l 0.07,-0.12 0.17,0.14 c 0.19,0.16 0.81,0.73 0.9,1.45 l -0.09,0.1 c -0.47,0.57 -1.11,0.67 -1.74,0.69 l -0.17,0.04 -0.09,-0.26 z"
   id="path14514" />
			<path
   class="st2"
   d="m -1891.42,-3602.58 c -0.27,0 -0.52,-0.08 -0.75,-0.25 -0.15,-0.58 0.28,-1.19 0.59,-1.65 0.11,-0.15 0.19,-0.27 0.25,-0.38 l 0.05,-0.13 0.11,-0.2 c 0.12,-0.25 0.25,-0.49 0.36,-0.75 0.04,-0.14 0.08,-0.27 0.11,-0.4 0.19,-0.75 0.33,-1.22 0.71,-1.36 0.29,0.05 0.44,0.09 0.51,0.2 0.07,0.11 0.05,0.26 -0.01,0.55 l -0.05,0.1 c 0.04,0.1 0.06,0.23 0.08,0.35 0.08,0.44 0.1,0.9 0.06,1.32 l -0.02,0.17 c -0.03,0.16 -0.07,0.3 -0.12,0.44 -0.17,0.54 -0.37,1.14 -0.76,1.49 l -0.16,0.15 -0.11,0.06 c -0.27,0.17 -0.56,0.27 -0.84,0.27 h -0.01 z"
   id="path14516" />
			<path
   class="st2"
   d="m -1891.42,-3602.6 h 0.02 c 0.28,-0.01 0.56,-0.1 0.82,-0.27 l 0.1,-0.06 0.16,-0.15 c 0.39,-0.35 0.58,-0.95 0.75,-1.48 0.05,-0.14 0.09,-0.28 0.12,-0.44 l 0.02,-0.17 c 0.05,-0.46 0.02,-0.91 -0.06,-1.32 -0.02,-0.13 -0.03,-0.25 -0.05,-0.37 h -0.02 l 0.05,-0.1 c 0.05,-0.27 0.08,-0.43 0.01,-0.53 -0.06,-0.1 -0.2,-0.14 -0.48,-0.19 -0.36,0.13 -0.5,0.59 -0.68,1.29 -0.04,0.15 -0.08,0.29 -0.13,0.45 -0.12,0.27 -0.24,0.51 -0.37,0.76 l -0.11,0.2 -0.05,0.14 c -0.06,0.11 -0.15,0.23 -0.25,0.38 -0.31,0.45 -0.74,1.06 -0.6,1.61 0.24,0.16 0.49,0.25 0.75,0.25"
   id="path14518" />
			<path
   class="st2"
   d="m -1894.08,-3603.26 c -0.13,0 -0.3,-0.07 -0.61,-0.27 -0.41,-0.92 1.05,-1.96 1.22,-2.08 0.24,0.06 0.37,0.18 0.46,0.41 0.17,0.46 0.05,1.12 -0.27,1.5 -0.44,0.31 -0.62,0.43 -0.8,0.44 z"
   id="path14520" />
			<path
   class="st2"
   d="m -1894.08,-3603.29 v 0 c 0.16,0 0.35,-0.13 0.78,-0.42 0.31,-0.37 0.43,-1.02 0.26,-1.47 -0.08,-0.22 -0.2,-0.34 -0.41,-0.4 -0.17,0.12 -1.61,1.15 -1.22,2.03 0.3,0.19 0.47,0.26 0.59,0.26"
   id="path14522" />
		</g>
	</g>
</svg>
